<?xml version="1.0" encoding="utf-8"?>
<!-- Generator: Adobe Illustrator 28.4.1, SVG Export Plug-In . SVG Version: 6.00 Build 0)  -->
<svg version="1.1" id="Layer_1" xmlns="http://www.w3.org/2000/svg" xmlns:xlink="http://www.w3.org/1999/xlink" x="0px" y="0px"
	 viewBox="0 0 1600 213" style="enable-background:new 0 0 1600 213;" xml:space="preserve">
<g>
	<g>
		<path d="M911.3,296.2c-2.9-8.2-6.3-15.1-7.9-22.5c-5.1-23.4,7-45.8,29.4-55.1c18.8-7.8,44.6-4.1,57.9,17.9
			c6,10,11.6,12.6,23.5,11.6c38.5-3.3,77.1-4.5,115.7-6.6c7.6-0.4,15.3-1,22.9-2.1c9.8-1.5,18.5-5.1,23.6-15.5
			c-2.1-1.2-3.7-2.4-5.4-2.9c-4.1-1.4-5.7-4.2-5.7-8.3c0.1-10.7,0.3-21.3,0-32c-0.2-8,6.2-8.3,12.3-10.1c-2.1-22.5-9-42.2-29.2-54.1
			c-9.9-5.8-21-10.3-32.2-13.1c-64.8-16.3-130.2-28.6-197.5-25.1c-38.8,2-76.7,8.5-113.5,21.2c-5.9,2-10.7,5.3-14.6,10
			c-6.3,7.4-12.4,14.9-19,21.9c-35.1,37.4-75.4,67.7-123,87.2c-26.7,11-54.5,18.2-83.6,17.4c-47.7-1.2-88.9-18.3-122.3-53.1
			c-35-36.6-54.7-80.7-64.8-129.6c-12.5-60.3-10.3-120.5,1.1-180.7c12.2-64.5,34.4-125.1,66.7-182.1c26-45.9,57.6-87.4,97.2-122.3
			c35.7-31.4,75.4-56.1,122.3-67.1c44.3-10.4,87.4-7.8,128.4,13.4c29,15,52.1,36.6,70.5,63.6c23.7,34.8,36.9,73.7,43.9,114.8
			c3.2,18.7,4.2,37.7,6.6,56.5c0.5,4.2,1.7,8.5,3.7,12.2c16.7,30.9,37.7,58.9,60.5,85.6c46,53.9,99.8,98.8,158.8,137.7
			c10.3,6.8,20.3,14,30.2,21.3c48.7,35.8,73.9,83.7,73.8,144.4c0,5-0.2,10,0.3,15c0.2,2,1.8,3.8,2.8,5.7c2.1-1.2,4.4-2.2,6.2-3.8
			c1.1-1,1.4-3,2.2-4.4c7.2-11.5,17.3-17.2,31.1-15.7c15,1.6,25.5,14.7,23.6,29.3c-1.9,14.5-12.9,21.8-30.4,18.9
			c-0.5,3.7-1.5,7.4-1.5,11.2c-0.1,28.7-0.5,57.3,0.1,86c0.6,34.1-4.8,67.1-18.2,98.5c-18.4,43.2-47,77.1-90.2,97.4
			c-6.9,3.2-10.1,7.1-9.8,15.1c0.6,16,0.2,32,0.2,48c0,3.6,0.4,7.2,0.6,10.5c1.6,0.7,2.5,1.4,3.4,1.4c13.2,0.2,22.8,6.1,29.4,17.5
			c1.3,2.3,4.9,3.3,6.9,5.4c3.7,3.7,8,7.3,10.1,11.8c4.4,9.5,1.2,14.7-8.8,17.1c-49.2,11.8-98.4,23.7-147.7,35.4
			c-76.5,18.2-153,36.1-229.5,54.5c-12.9,3.1-25.1,3.6-38.2,0.4c-60.8-15-121.8-29.3-182.7-43.8c-55.7-13.3-111.5-26.5-167.2-39.8
			c-12.6-3-25.1-6.1-37.2-9.1c-2.5-13.6,0.3-19.9,10.5-26.3c2.8-1.7,6-3.5,7.6-6.1c6.1-9.9,14.6-15.3,26.2-15.9
			c1.3-0.1,2.5-0.6,4.8-1.3c0.4-3,1.3-6.1,1.3-9.3c0.1-48.7,0.2-97.3,0.2-146c0-7.5-0.8-8.3-8.2-10.2c-1.3-0.3-2.6-0.6-3.9-0.8
			c-12.5-2.5-12.5-2.5-12.4-15.6c0-4.3,0.1-8.7,0.3-13c0.5-8.2,1.1-9.1,9.1-10.3c17.8-2.8,35.6-5.4,53.4-8.1
			c19.4-2.9,38.9-5.8,58.3-8.8c9.8-1.5,10-1.6,11.5-11.4c0.7-4.8,3.1-8.2,7.3-10.1c6.3-2.9,12.7-6.4,19.4-7.7
			c22.9-4.5,45.8-9.3,68.9-11.9c58.3-6.6,116.9-9.3,175.6-7.8c26,0.7,51.9,2.5,77.9,3.7C906.8,296.2,908.8,296.2,911.3,296.2z
			 M565.7,330.3c4.9,2.8,7.9,5.3,11.4,6.5c6.3,2.1,12.8,3.5,19.3,4.9c52,11.6,104.9,14,157.9,15.2c44.2,1,88.6-0.3,132.8-1.5
			c34.6-0.9,69.1-4.2,103.3-10.2c13.4-2.4,26.5-6.3,39.7-9.8c2.5-0.7,4.7-2.7,7.4-4.3c-10.7-9-59.6-20.4-72.9-17.5
			c-0.4,7.6-9.1,11.6-9.1,19.9c0,1-3.3,3.2-4.4,2.8c-1.8-0.6-3.8-2.5-4.6-4.4c-2.7-5.8-4.7-11.9-7.4-17.7c-0.7-1.5-2.9-2.8-4.7-3.3
			c-3.5-1.1-7.1-2-10.7-2.3c-21.9-1.6-43.8-3.5-65.8-4.2c-51.3-1.6-102.5-1.4-153.8,1.5c-38.3,2.1-76.3,6.5-113.8,14.5
			C582.4,322.1,574.7,324.2,565.7,330.3z M1051.8,349.6c-4.1,10.1-11.2,14.2-19.2,17.1c-6,2.1-12,4-18.1,5.5
			c-33.8,8.3-68.3,11.4-102.8,13.7c-85.2,5.7-170.4,4.8-255.5-3.6c-26.2-2.6-52.2-6.5-77.6-13.8c-8.2-2.3-16.4-5.4-21-12.6
			c-3.8-6-8-5.9-13.5-5c-16.1,2.6-32.3,4.9-48.4,7.6c-9.7,1.6-19.4,3.5-29.1,5.2c3,2.5,6.1,3.5,9.2,4c38.3,7.1,76.6,14,114.9,21.1
			c67.4,12.6,134.8,25.4,202.3,37.8c5.5,1,11.4,1.4,16.8,0.4c41.6-7.7,83-15.9,124.6-23.7c54-10.1,108-20,162-30
			c13.5-2.5,27-5.2,40.5-7.8c0-0.6,0-1.3-0.1-1.9C1108.7,359.1,1080.6,354.4,1051.8,349.6z M1211.1,272.8c-2,0.2-3.1,0.1-3.9,0.5
			c-13.1,7.7-27.4,9.3-42.3,9.1c-49.6-0.4-99.2-0.5-148.8-0.7c-4.7,0-9.3-0.1-14,0.1c-1.9,0.1-4.5,0.5-5.4,1.8
			c-4.7,6.1-8.9,12.6-13.5,19.3c11.3,2.4,21.8,4.2,32.1,6.9c8,2.1,15.9,4.8,23.6,8c5.6,2.3,10.9,6.2,11.2,12.9
			c0.3,6.8,4.2,8.1,9.6,8.9c11.5,1.8,23,3.9,34.5,5.7c26.6,4.2,53.2,8.4,79.9,12.6c7.9,1.2,8.5,1.8,9.2,10.2c0.3,3.8,0.7,7.6,1,11.4
			c0.9,0,1.7,0.1,2.6,0.1C1212.6,348.3,1213.3,311.2,1211.1,272.8z M741.8-51.5c0.2,5.1,0.2,8.4,0.6,11.7
			c2.2,18,10.4,32.1,27.2,40.3c12.8,6.2,21.3,4.4,31.2-5.7c21.1-21.6,33.1-48,40.8-76.6c2.3-8.7,4-17.5,5.3-26.4
			c0.4-2.9-0.2-7.3-2.1-9c-21.8-18.7-43.2-18.1-63.3-5.7C754.4-106.2,743.4-80.5,741.8-51.5z M887-62.9c1,0.9,1.6,1.8,2.4,2.2
			c72.7,31.3,145.5,62.6,218.2,93.9c2.7,1.2,5.6,1.9,8.5,2.8c0.3,0.1,0.6-0.1,1-0.2c0.3-0.1,0.6-0.3,1-0.5c3.7-4.9,0.8-7.6-3.5-10
			c-15.2-8.2-30.6-16.1-45.7-24.7c-59.1-33.5-114.2-72.2-159.7-123.3c-1.1-1.2-2.4-2.1-4.5-3.8C898.7-104.9,892.9-84.3,887-62.9z
			 M505-259.9c58.9,40.4,119.1,78.1,180.6,115.6c4.2-6.1,7.9-11.4,11.2-16.2c-46.8-42-92.4-83-138.5-124.3
			C543-271.7,525.4-263.7,505-259.9z M719.7-183.2c-17.3-19.8-33.8-38.1-49.4-57c-15.7-19-30.8-38.4-45.6-58
			c-14.6-19.4-28.4-39.3-42.9-59.3c-1.5,11.9-1.9,22.6-4.3,32.8c-2.4,10.6-6.7,20.7-10.6,32.6c44.2,41.5,89.1,83.8,137.8,122.6
			C710-174.4,714.6-178.6,719.7-183.2z M744.3-200.2c-36.4-54.1-68.8-108.9-96-167.6c-20,7.9-39.2,6.4-59-0.7
			c14.9,32.2,121.5,166.4,141,177.7C734.4-193.5,738.7-196.5,744.3-200.2z M856.9,9.4c1.4,0.9,1.9,1.6,2.5,1.6c1.6,0.1,3.3,0.2,5,0
			c28.6-3.5,57.2-2.8,85.7,1.3c41.6,6,82.3,15.8,122,29.9c10.3,3.7,20.7,7.4,31.1,11c4.5,1.6,7.9,0.8,8.2-4.7
			c-5.6-4.2-220.3-96.8-228.7-98.6C874.1-30.3,865.5-10.4,856.9,9.4z M456.4-135.3c0.2,0.6,0.3,1.3,0.5,1.9
			c34.2,7.4,68.5,14.7,102.7,22.4c34.2,7.7,68.4,15.9,103.4,24.1c1.6-6.7,3.1-12.6,4.5-18.3c-16.4-9.5-158.4-68.6-166.8-69.4
			C490.8-156.5,476.1-143.1,456.4-135.3z M500-248.6c0,2.3-0.2,3.3,0,4.1c5.6,16.9,9.8,33.9,6.4,51.9c-0.8,4.1,0.6,7.1,4.7,8.7
			c2.8,1.1,5.5,2.4,8.2,3.6c48.7,20.7,97.3,41.3,146,62c1.7,0.7,3.6,1,6.1,1.7c2.8-6.1,5.5-11.7,8.4-17.9
			C619.8-172.7,560.2-210.4,500-248.6z M771.9-210c-11.2-23.7-22.3-45.7-32-68.3c-9.6-22.3-18.6-45-26.4-68
			c-7.8-23.1-13.7-46.9-21.1-72.8c-7.7,20.3-17.8,36-34.8,47c27.8,59.4,59.8,115.1,97.2,168.2C761-206.1,765.9-207.9,771.9-210z
			 M456.7-122.1c-0.4,0.6-0.7,1.2-1.1,1.8c1.6,2.3,3.2,4.7,4.9,7c7.5,9.9,13.5,20.5,15.9,32.9c2.2,11.6,2.4,11.5,14.1,11.9
			c1,0,2,0,3,0.1c50.9,0.6,101.7,4.1,152.3,9.8c3.9,0.4,7.8,0.1,12.9,0.1c0.6-5.9,1.1-11.3,1.6-17.2
			C592.2-93.3,524.8-109.3,456.7-122.1z M406.6,604.5c6.2,1.8,12.1,3.8,18.1,5.3c28.1,6.9,56.3,13.6,84.5,20.3
			c50.8,12.1,101.7,24.1,152.5,36.2c40.8,9.7,81.6,19.5,122.4,29.1c4,0.9,8.1,1.3,12.1,1.9c3.1-13.8,2.4-15.2-9.2-18
			c-26.5-6.5-53.1-12.8-79.6-19.1c-91.6-21.8-183.3-43.6-275-65.3c-4.5-1.1-9.2-1.9-13.8-1.8C412.4,593.3,408.1,596.5,406.6,604.5z
			 M1197.3,604.2c-1.4-7.5-2.9-9.7-8.9-10.2c-4.2-0.4-8.7,0-12.8,1c-18.8,4.4-37.5,9.2-56.3,13.6c-69.4,16.3-138.8,32.6-208.2,48.8
			c-30.5,7.1-61,14.2-91.5,21.3c-2.3,0.5-4.5,1.1-6.8,1.8c-3.3,0.9-5.2,3-5.1,6.5c0.1,3.2,0.5,6.4,0.7,9.5
			C817.6,697.1,1182.2,610.4,1197.3,604.2z M615.3,600.2c4-3.6,7.4-6.6,10.7-9.8c15.3-15.3,30.6-30.6,45.9-45.9
			c15.2-15.4,30.5-30.7,45.5-46.3c2.5-2.6,5.6-5.7,6-8.9c0.9-7.4,0.3-15,0.3-22.5c-0.7-0.3-1.5-0.7-2.2-1c-3.2,3.1-6.5,6.1-9.7,9.2
			c-29.4,29.4-58.8,58.9-88.2,88.3c-2.5,2.5-5.4,4.5-8.9,7.3c-3.2-3.9-5.7-6.9-8-10c-31.9-43.9-63.8-87.8-95.7-131.7
			c-1.6-2.2-3.5-4.1-6-6.9c-2.9,19.1-2,23.5,7.8,37c32.1,44.6,64.3,89.1,96.4,133.6C610.8,595.1,612.8,597.2,615.3,600.2z
			 M989.5,599.7c2.4-2.7,4.6-4.8,6.3-7.1c33-45.7,65.7-91.5,98.9-136.9c7.5-10.2,6.1-20.9,5-32.3c-37.1,49-72.6,98.9-109.7,148.8
			c-36.4-36-70.2-72.3-108-105.3c-1.2,5.7-1,10.9-1.3,16.1c-0.4,6.9,2.4,12,7.2,16.8c29,28.5,57.8,57.2,86.7,85.8
			C979.3,590.2,984.1,594.6,989.5,599.7z M434.7,370.8c-2.7,13-1.4,15.2,9.1,17.6c2.6,0.6,5.2,1.3,7.8,1.7
			c51.1,9.4,102.2,18.5,153.2,28.2c48.8,9.2,97.4,18.9,146.1,28.4c12.7,2.5,25.5,5,38.2,7.5c3,0.6,6.1,1.2,7.8-2.4
			c3.2-7.1-0.4-13.9-8.3-15.4c-49.8-9.2-99.5-18.4-149.3-27.7c-62.5-11.6-125.1-23.3-187.6-34.9
			C446.3,372.7,440.8,371.8,434.7,370.8z M451.1-8.3c0.4,0.5,0.8,0.9,1.2,1.4c1.3-0.2,2.6-0.4,3.8-0.7c23.6-4.3,47.1-9.2,70.8-12.6
			c40.6-5.9,81.5-8.4,122.6-8.4c10,0,11.4-2.2,10-12.1c-0.9-6.5-5.5-6.7-10.2-7.1c-25.5-2.4-51-5.2-76.6-7
			c-28.2-2-56.6-3.3-84.8-4.7c-10.6-0.5-10.9-0.3-13.3,10.3c-2.9,12.7-8.9,23.6-17.2,33.5C455.2-13.3,453.2-10.8,451.1-8.3z
			 M1171.6,370.8c-2.9,0.3-4.6,0.2-6.2,0.6c-20.9,4-41.8,8.2-62.7,12.1c-69.7,13-139.3,25.9-209,38.8c-25.5,4.7-51,9.4-76.5,14.2
			c-8.5,1.6-9.3,2.7-9.2,11.2c0,1.9,0.5,3.8,1,6.8c4-0.4,7.5-0.5,11-1.2c35.6-6.8,71.3-13.6,106.9-20.4c52.3-10,104.6-20.1,156.8-30
			c27.4-5.2,54.9-10.4,82.4-15.4c4.8-0.9,7.1-3.3,6.8-8C1172.7,376.8,1172.1,374.3,1171.6,370.8z M665.5-2.6
			c-0.7-14.5-2.4-16.9-12.5-16.3c-34.5,2-69.2,3.2-103.6,6.9C519.1-8.8,489-2.5,458.8,2.5c-2.4,0.4-4.7,1.5-7.4,2.4
			c8.2,5.1,16.5,9,23.1,14.6c6.7,5.7,11.8,13.2,18.1,20.5C548.3,19.5,605.7,3.2,665.5-2.6z M425.4,583.2c4,1.3,6.4,2.2,8.9,2.8
			c9.4,2.2,18.9,4,28.3,6.3c72.2,17.2,144.5,34.3,216.7,51.6c34,8.1,68,16.5,101.9,24.6c5,1.2,10,3.5,15.2,1.6
			c2.4-12.7,2-13.6-9.6-16.3c-29.8-7-59.7-13.7-89.5-20.8C621.6,615,545.8,596.7,470,578.7c-8.7-2.1-17.6-3.5-26.5-4.4
			C436.6,573.6,430.5,575.9,425.4,583.2z M1180,583.5c-5.5-8.5-12.2-9.9-19.3-9c-8.9,1.2-17.7,3-26.4,5.1
			c-72.3,17-144.5,34.1-216.7,51.1c-33.4,7.9-66.8,15.4-100.2,23.4c-10.3,2.5-11.2,4.9-7.4,17C932.9,642.5,1055.7,613.2,1180,583.5z
			 M1120.8,16.1c2.6-6.4,0.1-9.3-4.1-11.8c-11.6-7.2-23.1-14.5-34.5-22c-64.2-42.5-120.9-92.7-163.5-157.6c-1.3-2-3.2-3.5-5.7-6.3
			c-1.7,10.5-2.7,19.4-4.8,28.1c-2.1,8.5,0.8,14.5,6.3,20.6c24.3,27.1,51.3,51.2,80.6,72.9c37.5,27.9,78.5,50.2,119,73.1
			C1116,14.2,1118.2,15,1120.8,16.1z M488,102.5c57.6-41.2,120.7-67.5,188.1-83.6c-3.4-11.2-4.6-11.8-17.3-10.2
			c-34.7,4.4-69,11-102.6,21c-18.5,5.5-36.7,12-55.1,17.9c-4.9,1.6-6.7,4.1-6.2,9.5c0.6,6.9,0.5,14-0.6,20.8
			C493.1,85.7,490.5,93.2,488,102.5z M1038.3,345.9c-2.4,0.4-4.2,0.6-6.1,1c-22.8,4.6-45.5,11.2-68.5,13.4
			c-41.7,4-83.7,6.5-125.6,7.8c-60.6,1.9-121.3-0.1-181.7-6.3c-29.2-3-58.2-6.9-86.2-16.4c-1.1-0.4-2.4,0-3.9,0
			c-1.1,6.5,3.2,9.1,7.4,10.5c8.8,3.1,17.7,6,26.8,7.8c42.2,8.6,85.2,11.3,128,13.9c43.2,2.7,86.6,2.8,129.9,0.5
			c48.9-2.6,97.8-5.3,146-14.5c9.1-1.7,18-4.8,26.8-7.8C1035.2,354.5,1039,352.1,1038.3,345.9z M1098.1,64c-1.3-0.8-2.2-1.7-3.4-2.1
			c-13.8-4.9-27.4-10.4-41.4-14.6c-31.3-9.4-63-16.9-95.2-22.3c-33.8-5.7-67.6-6.3-101.5-2.4c-3.1,0.4-7.2,1.5-8.7,3.7
			c-6.6,9.8-12.4,20.2-19.5,32.1c4.6-1.1,7.1-1.5,9.5-2.2c25.1-7.2,50.6-11.6,76.7-12.7c46.3-1.9,91.7,4.2,136.5,15.2
			c12.6,3.1,25.1,6.5,37.7,9.8C1093.1,69.6,1096.7,69.8,1098.1,64z M840.4-176.5c0.4-6.6-3.7-9.4-7.6-11.8
			c-14.8-9.2-30.8-14.5-48.4-12.3c-26.1,3.2-48,15.1-66.7,33.3c-15.8,15.4-27.5,33.4-35.8,53.7c-13.6,33.1-16.9,67.2-6.7,101.7
			c6.6,22.4,20.3,39.6,42.7,48.5c5,2,10.3,4.3,16.1,2.2c-0.3-0.8-0.3-1.3-0.5-1.4c-1.4-0.9-2.8-1.8-4.3-2.5
			c-18.4-9.4-30.7-24.2-38.1-43.3c-5.7-14.8-8.6-30-7.8-46c0.9-19.2,5-37.7,12.5-55.3c14.1-32.7,36.3-58,69.5-72.5
			c18-7.9,36.8-9.5,55.6-3.6C827.4-183.7,833.4-179.9,840.4-176.5z M709.1-409.7c-0.7,0.4-1.3,0.9-2,1.3c0.8,3.8,1.3,7.7,2.3,11.4
			c11.2,42.6,25.2,84.2,44,124.1c8.6,18.4,17.9,36.5,27.3,54.4c4.1,7.7,4.8,7.5,15.7,5.2c-1.2-3.4-2.2-6.8-3.6-10
			c-11.4-27-21.1-54.7-27.6-83.3c-4.8-21.4-9-43-13.1-64.6c-0.9-4.8-2.8-7.7-7.4-9.4c-12.2-4.5-21.6-13-30.3-22.3
			C712.5-405,710.9-407.4,709.1-409.7z M1020.6,270.1c2.4,0.2,5,0.6,7.6,0.6c39.6,0.2,79.3,0.4,119,0.6c9,0,18,0.2,27-0.1
			c26.1-0.9,45.2-15.8,51.5-39.5c2-7.7,1.1-9.1-6.5-9.3c-6.7-0.2-13.3,0.2-20-0.2c-6.3-0.4-10.4,1.5-13.5,7.5
			c-5.9,11.3-15.8,17.8-28.3,20.2c-5.9,1.1-11.9,1.9-17.8,2.2c-26.9,1.6-53.9,3-80.8,4.5c-10.6,0.6-21.3,1.2-31.9,2.1
			C1019.5,259.4,1018.7,261,1020.6,270.1z M759.9,29c-2.9-1.5-5.1-2.9-7.4-3.9c-16.3-7-28.4-18.2-36.3-34.2
			c-10-20.4-10.9-41.6-6.4-63.4c6.8-32.7,22.4-60,50.7-78.5c25.8-16.9,52.9-21.4,80.8-4.2c0.9,0.6,2.3,0.5,5.1,1
			c-1.6-3.2-2.1-5.6-3.5-7c-2.9-2.8-6-5.4-9.4-7.4c-21.8-13-44.3-12.7-67.1-3.2c-17.1,7.1-30.2,19.2-41.6,33.5
			c-28.9,36.4-38.8,77.2-25.6,122c7.1,24.1,23.3,40.9,48.8,46.9C751.6,31.4,755.5,32.7,759.9,29z M494.4,110.8
			c2.8,0.5,4,0.9,5.2,0.8c13.5-1,26.6,0.1,39,5.9c4.1,1.9,6.6-0.3,9.7-2.7c17.5-13.2,34.8-26.7,53-38.9
			c24.7-16.6,52.4-27.4,80.1-37.8c2.9-1.1,5.6-2.4,8.5-3.7c-2.5-6.5-6.4-5.4-10.5-4.6c-25.5,5-50.4,12.4-74.5,21.9
			c-36,14.2-70.7,30.8-102.7,52.7C499.8,106.1,497.7,108,494.4,110.8z M821.7-207.4c-5.7-20.1-12.2-39.3-16.4-59
			c-4.2-19.4-7.7-39.3-8.8-59.1c-1.1-19.9,1.3-40.1,2.1-60c-11.8,3.8-23.4,7.6-35.6,11.5c0.1,2.3,0.1,4.9,0.5,7.4
			c7.6,51.2,21.4,100.7,42.6,148C809.2-211.6,813.2-207.5,821.7-207.4z M776.7,15.3c-1.9-0.8-3.6-1.8-5.4-2.2
			c-9.4-2.4-16.7-7.9-23.1-15c-12.7-13.9-17.5-30.6-16.7-48.8c1.5-37.5,17.6-66.9,51.1-84.6c19.8-10.5,40.4-10.6,59.3,3.9
			c0.7,0.6,1.8,0.7,3,1.1c1.6-4.2,0.5-7.6-2.5-10.1c-4.4-3.5-8.8-7.3-13.8-9.6c-22.8-10.3-44.6-6.7-64.1,7.9
			c-36.6,27.5-51,64.9-45.2,109.7C722.8-5,742,13.8,767.5,18.1C770.8,18.7,774.1,19.6,776.7,15.3z M566.8-372.5
			c-22.5,18.2-70.2,79.1-74,99.1c23.7,5.7,55.3-9,67.8-31.6c10.7-19.3,11.2-40.1,8.4-61.2C568.8-368.1,567.7-369.8,566.8-372.5z
			 M916.8-217.7c-3.1,10.7-2.8,14.2,1.8,22.4c16.8,29.8,38.3,56.1,61.8,80.7c39.4,41.3,85.4,74.3,133.4,104.5
			c1.3,0.8,2.8,1.2,4.2,1.8c-0.6-3.8-2.2-6.6-4.5-8.6c-3.2-2.9-6.7-5.4-10.2-8C1031.6-77,968.9-138.1,920.7-213.2
			C919.7-214.7,918.3-216,916.8-217.7z M580.9-385.6c23,12.9,44.7,18,67.3,6.8c23-11.5,32.1-32.6,37.7-57.9
			C645.4-429.8,612.5-411.8,580.9-385.6z M855.5,633.4c14.5,0.1,16-1.1,15.9-13.6c0-50.9-0.1-101.8-0.3-152.8c0-3.7-1-7.5-1.5-11.1
			c-14.2,0.2-15,0.8-15,12.4c-0.1,51.3-0.1,102.5,0,153.8C854.6,625.9,855.2,629.8,855.5,633.4z M482.5-254
			c-19.9,35.1-34.6,71.6-41.9,111.2c17.5,0.9,40.4-14.8,49.6-34.6C502.7-204,498.9-229.5,482.5-254z M703.7,45
			c-30.7-1.4-136.8,56.8-149.9,80.7c4.7,10.7,9.1,20.9,13.9,31.8C602.5,106.9,648.6,70.5,703.7,45z M429.9-6
			c18.5-7.3,37.5-37.2,37.6-59c0-24.2-10.8-42.9-30-57.6C428.8-107.2,423.8-27,429.9-6z M1079.9,80.7c0-0.7-0.1-1.5-0.1-2.2
			c-0.5-0.4-0.9-1.1-1.5-1.2c-41.8-13.1-84.8-20.2-128.4-22.7c-34.4-1.9-68.5,1.3-102,9.9c-8.7,2.2-17.3,4.9-25.7,7.9
			c-5.4,1.9-8.9,6.1-10.2,12.9c2.8-0.6,4.3-0.9,5.9-1.3c25.3-7.4,51-12.8,77.2-15.3c33.2-3.2,66.5-3.6,99.6,0.5
			c25.1,3.1,49.9,7.9,74.9,11.7C1073,81.4,1076.5,80.8,1079.9,80.7z M431.5,12.2c4.4,37.6,15.3,70.5,36.9,100.3
			c18.9-22.5,22.2-52.6,9.9-72.4C468.1,23.5,453.1,14.4,431.5,12.2z M797.1,644.5c0.3-4.1,0.7-8.3,0.7-12.5c0-52-0.1-104-0.1-156
			c0-1.7,0.1-3.3-0.1-5c-0.6-5-3.2-6.9-9-6.9c-4.8-0.1-6.4,2.6-6.5,6.9c0,1.3-0.1,2.7-0.1,4c0,52.7-0.1,105.3-0.1,158
			C781.9,643.9,784.1,645.5,797.1,644.5z M808.5,644.6c13,0.1,14.6-1.3,15-11.6c0.1-2,0.1-4,0.1-6c-0.2-49.6-0.4-99.2-0.6-148.8
			c0-3,0-6-0.5-9c-0.5-3.4-2.7-5.1-6.4-4.7c-6.6,0.6-8.2,2.8-8.2,11.9c-0.1,51.9-0.1,103.9-0.1,155.8
			C807.9,636.1,808.3,640.1,808.5,644.6z M749.8,634.5c0.3-5.2,0.9-9.4,0.9-13.6c0-44.6-0.1-89.2-0.2-133.8c0-7.3,0.1-14.6-0.1-22
			c-0.2-7.4-3.1-9.9-10.5-10c-4.6,0-5.5,1.5-5.8,9.3c-0.1,2-0.1,4-0.1,6c0,47.3,0,94.5,0,141.8c0,4.3,0.1,8.7,0,13
			c-0.1,4.4,2.2,6.8,6.3,7.7C743,633.6,745.9,633.9,749.8,634.5z M815-429.4c2.8-5.5,4.9-9.3,6.7-13.1c3.9-8.4,4.1-8.7-3-14.2
			c-34-26.8-72.3-40.4-116-37.2c-1.9,0.1-3.7,1-6.5,1.8c0.7,7.7,1.4,15.2,2.3,23.8C746.3-482.9,783.6-467.5,815-429.4z M685.5-492.1
			c-52.6,8.2-94.7,33.1-133.6,66.7c4.3,6.9,7.9,12.7,12.3,19.8c29.9-43.9,69.3-66.2,123.3-61C686.8-475.3,686.2-482.8,685.5-492.1z
			 M704.9-436.4c5.8,13.5,13.5,24.5,23.5,33.9c9,8.5,19.7,13.7,31.8,15.3c15.4,2,28.2-3.8,39.2-14.5
			C776.3-428,729.5-442.3,704.9-436.4z M1278.1,184.3c10.2,2.3,15.9,0,17.6-6.3c3-10.8-4.8-20.5-16-19.9c-11.3,0.6-19,7.4-21.2,20.2
			c-1.4,7.8-1.8,15.9-1.9,23.9c-0.3,24.3,0,48.7-0.4,73c-0.3,18.1-9.4,29.3-26.6,33.8c-2.2,0.6-4.3,1.4-6.8,2.2c0,4.8,0,9.3,0,14
			c2.7,0.3,4.7,0.6,6.6,0.6c2,0,4-0.3,5.9-0.8c18-4.7,30.9-20.5,30.4-38.3c-0.9-31.6-0.1-63.3-0.2-95c0-6.8,0.8-13.3,4.6-19.1
			c2.5-3.9,6.1-6.5,10.9-5.3c1.9,0.5,4.1,2.4,4.9,4.2c0.5,1.1-1,3.5-2,5C1282.3,179.1,1280.3,181.4,1278.1,184.3z M620.7,551.4
			c3.7-3.1,6.1-4.7,8.1-6.7c19.1-19.1,38.1-38.2,57.1-57.4c9.4-9.4,18.8-18.9,28.1-28.4c1.9-1.9,3.2-4.4,4.9-6.8
			c-13.6-5.6-23.4-4.6-33.2,6.3c-18.4,20.6-38,40.2-58,59.3C617.5,527.5,619.6,538.1,620.7,551.4z M981.7,549.8
			c0.8-0.4,1.6-0.7,2.3-1.1c0-4.3-0.2-8.6,0.1-12.8c0.5-7.5-1.7-13.4-7.4-18.6c-8.6-7.9-16.5-16.4-24.6-24.7
			c-12.5-12.9-24.9-25.9-37.6-38.6c-2.4-2.4-5.9-5.4-8.9-5.4c-6.4,0-12.8,1.8-21.7,3.3C917.7,485.7,949.7,517.7,981.7,549.8z
			 M513.4,413.3c1.2,3,1.6,5.3,2.9,7c30.8,42.3,61.7,84.6,92.5,126.8c1.8-13.5,2.2-25.6-6.7-37.1c-21.4-28-41.7-56.8-62-85.6
			C533.5,414.8,524.7,413.4,513.4,413.3z M1089.7,413.9c-10.3,0.6-19.3,2-25.9,11.6c-20.4,29.5-41.1,58.9-62.5,87.7
			c-7.8,10.4-7.4,21.1-6.5,33.2C1004.7,536.7,1087,421.8,1089.7,413.9z M938.9,300.3c3.5-9.5,3.4-9.9-2.2-15.2c-1.7-1.6-3.6-3-5-4.9
			c-6.4-8.5-7.3-17.7-2.5-27.2c5-9.9,14.8-15,25.6-13.5c10.4,1.4,16.4,8,19.6,17.6c3.5,10.6,0.9,19.9-7.3,27.2
			c-5.3,4.7-6.3,9.5-3.8,15.7c15.4-4,26.9-22.7,25-39.8c-2.2-19.5-16.7-33.1-35.8-33.6c-19.6-0.5-34.7,11.7-38.2,30.9
			C910.9,276.6,920.9,294.5,938.9,300.3z M1124.4,407.4c-12.1,0.8-12.5,1.2-12.5,10.6c0,7,0.1,14,0.1,21c0,41-0.1,82,0,122.9
			c0,3.6,0.4,7.2,0.7,10.6c11.5,1,12.8,0,12.8-9.9c0-49,0-98-0.1-146.9C1125.3,413.1,1124.7,410.6,1124.4,407.4z M493.8,573.5
			c0.2-4,0.5-7.2,0.5-10.5c0-25.6,0-51.3,0-76.9c0-22.6-0.1-45.3-0.3-67.9c-0.1-10-1.6-11-13.1-9.7c-0.3,3.3-0.8,6.9-0.8,10.4
			c-0.1,47.3-0.2,94.6-0.2,141.9C479.8,572,480.3,572.4,493.8,573.5z M544.1-418.9c-39.7,36.8-69.6,78.2-94.5,123.8
			c5.6,4.8,9.9,9.3,16,10.3c6.6-15.8,12.5-31.3,19.4-46.2c6.9-14.9,17.3-27.5,29-39.1c11.9-11.7,26.4-19.7,42.3-27.3
			C552-404.8,548.5-411.1,544.1-418.9z M544.1,202.3c-10.7-1.7-20.1-2.2-28.8-4.7c-9.2-2.7-18.4-6.3-26.5-11.2
			c-7.8-4.8-14.9-11.3-21-18.1c-6.3-7.1-11-15.6-16.5-23.5c-1.1,0.4-2.1,0.4-2.9,1c-2.1,1.7-4.1,3.4-6,5.3c-6.9,6.9-7.1,8.3-1,15.9
			c22.6,28,52.4,44.7,86.5,54.3c6.7,1.9,8.1,0.9,10.8-5.3C540.5,212,541.9,208,544.1,202.3z M883.1,509.8
			c-3.5,9.8-3.3,108.7-0.1,117.4c14.7-0.2,16.6-1.7,16.6-15.3c0.1-24.9-0.8-49.9,0.2-74.8C900.3,523.4,891.5,517.5,883.1,509.8z
			 M882.3-301.4c13.8-3.9,15.3-6,12.7-17.6c-1.6-7.1-3.1-14.3-5.2-21.3c-10.2-34.4-24.3-66.9-48.3-94.3c-2.3-2.7-4.9-5.1-8.6-8.8
			c-3.7,8.3-6.7,15.1-10,22.4C866-392.4,881-350.6,882.3-301.4z M405.2,17.7c-2.2-0.6-3.1-1.1-4-1c-1.6,0.1-3.3,0.5-4.9,0.8
			c-11.9,2.8-12.8,4.2-10.8,16.5c0.3,2,0.6,4,0.9,5.9c6.3,35.3,16.3,69.3,35.5,100.1c2.2,3.5,5,6.5,8.2,10.5
			c5.6-5.1,10.2-9.2,15.5-14C410.4,103.7,397.2,64.4,405.2,17.7z M771,638.8c0.3-3.9,0.8-7.2,0.8-10.4c0.1-52.2,0.1-104.4,0-156.6
			c0-2.3,0.4-5-0.6-6.8c-1.1-1.9-3.6-3.8-5.7-4.2c-1.2-0.2-3.9,2.6-4.1,4.4c-0.8,4.9-0.9,9.9-0.9,14.9c0,49.2,0,98.4,0.1,147.6
			c0,1.3-0.1,2.7,0,4C761.2,637.7,761.9,638.2,771,638.8z M834.1,639.5c10-2.4,10.3-2.4,10.3-11.7c0-51.9,0-103.8-0.2-155.7
			c0-3.6-0.7-7.1-1-10.5c-9.3-0.9-10.2-0.2-10.2,8.9c-0.2,52.9-0.2,105.8-0.2,158.7C832.8,632.4,833.6,635.6,834.1,639.5z
			 M675,174.4c-4.1,3.3-7.4,6.1-10.8,8.6c-26.6,19.6-55.8,29.3-89.1,23.2c-4.6-0.8-9-2.5-13.5-3.8c-3.2-0.9-6.2-0.8-7.7,2.7
			c-2.6,6-6.4,11.6-5.6,18.5c1.3,0.7,2.1,1.4,3,1.5c3,0.3,6,0.6,9,0.6c38.2,0.3,73.6-10.3,107.2-27.9
			C678.3,192.1,679.6,188.9,675,174.4z M480.6,126.9c2,2.8,3.2,5.1,5,6.8c6.6,6.1,13,12.4,20.1,17.9c12,9.3,25.9,15,40.4,18.9
			c7,1.9,9.3,0.4,9.9-5.5c1.4-13.2-8.2-31.6-20.2-37.7c-15.2-7.8-31.2-8.8-47.5-4.2C486,123.8,483.8,125.3,480.6,126.9z M403.1,5.9
			c-18-46.9-14.4-91.4,6.8-134.6c-6.5-4.4-12.1-6.4-18.5-4.1C381-98,375.5-9.2,384.6,11C390,9.5,395.6,8,403.1,5.9z M414.7-141
			c0-14.7-1.2-27.1,0.2-39.2c3.7-32.4,17.9-60.4,39.5-84.7c2.3-2.6,4.4-5.5,7.4-9.1c-5.9-3.9-10.8-7.1-16.5-10.9
			c-2.6,4.2-4.9,7.3-6.7,10.8c-19.3,37.9-33.5,77.6-43.5,118.9c-0.7,3.1-0.7,6.3-1.1,10.4C401.1-143.4,407.1-142.3,414.7-141z
			 M1082.4,579.5c17,0.7,19-1.1,19-15.1c0-30.9-0.1-61.8-0.2-92.7c0-1.5-0.4-3-0.9-6.5c-4.9,6.7-8.4,11.8-12.2,16.7
			c-4.3,5.5-5.9,11.4-5.8,18.5c0.3,22.6,0.1,45.2,0.1,67.8C1082.4,571.7,1082.4,575.3,1082.4,579.5z M522.5,580.1c0.4-3.3,1-6.2,1-9
			c0-22.9-0.7-45.9,0-68.8c0.5-15.4-9.3-24.5-18.4-37.1c-0.5,4.8-1,7.3-1,9.8c0,29.9-0.1,59.8,0,89.7c0,12.8,0.9,13.7,13.8,15.6
			C518.9,580.5,519.9,580.3,522.5,580.1z M723.2,628.2c0-40.3,0-79.3,0-120c-10,8.7-18.6,15.5-17.9,29.4c0.9,17.6,0,35.3,0,52.9
			c0,9,0.4,18,0.4,26.9c0,5.1,2.2,8.2,7.3,9.1C716,627,719.1,627.5,723.2,628.2z M469.7,567.4c0.2-3.6,0.5-6.5,0.5-9.5
			c0-39,0-78-0.1-116.9c0-10,0-20-0.5-30c-0.3-7.3-1.6-8.1-11.2-7.5c-0.2,3.1-0.5,6.4-0.5,9.6c-0.1,7.7,0.1,15.3,0,23
			c0,40.3-0.1,80.6-0.1,120.9C457.9,567.4,458.4,567.7,469.7,567.4z M1136.8,567.8c10.3-1.1,10.3-1.1,10.6-9.1c0.1-2,0.1-4,0.1-6
			c0-46.2-0.1-92.4-0.1-138.6c0-2,0-4-0.1-6c-0.2-2.9-1-5.5-4.5-5.3c-3.2,0.1-5.9,1.3-6.3,5c-0.2,2-0.3,4-0.3,6
			c0,48.5,0.1,97.1,0.1,145.6C1136.3,561.9,1136.6,564.5,1136.8,567.8z M572.2-395.2c0.7,0.6,1.3,1.2,2,1.8c2.5-1.9,5.1-3.7,7.6-5.6
			c23.5-18.4,48.8-33.5,77.6-42c7.3-2.2,14.9-3.3,22.3-5.4c2.1-0.6,3.8-2.9,5.6-4.4c-1.8-1.6-3.4-4.3-5.4-4.6
			c-7.2-0.9-14.7-2-21.8-1.2c-38.4,4.3-67,23.9-86.6,56.9C572.7-398.4,572.6-396.7,572.2-395.2z M687.1,186
			c54.9-32.2,93.5-76.9,127.8-127.6c-4.2-3.5-7.7-6.3-12-9.9c-2.4,5.4-4.3,9.6-6.1,13.8c-18.4,42.6-47.4,75.2-90.3,94.4
			c-4.6,2-9.3,3.6-13.7,6c-2.4,1.3-5.5,3.6-5.9,5.8C686.1,173.5,686.9,178.7,687.1,186z M562.1-385c-0.1-0.7-0.3-1.3-0.4-2
			c-3,0.7-6.3,0.9-9.1,2.1c-4.3,1.8-8.5,3.9-12.3,6.5c-33.9,23.1-53.6,55.6-63.1,94.9c-0.5,1.9,0.1,4.2,0.4,8.7
			c14.1-20.9,25.9-40.3,39.7-58.2C531.2-351.1,547.1-367.7,562.1-385z M805.5-413.5c0.9-0.6,1.7-1.2,2.6-1.8
			c-1.1-3.2-1.8-6.7-3.5-9.5c-18.5-30.9-63.3-46.9-97.2-34.9c-3.6,1.3-8.5,2.1-7.3,7.6c1.1,5.2,5.9,3.4,9.2,3.3
			c33.4-0.5,62.6,10.9,89,30.6C800.6-416.4,803.1-415,805.5-413.5z M419.6,15c-0.9,0-1.8-0.1-2.7-0.1c-1.1,4-2.6,8-3.1,12.1
			c-3,24.5,2,47.6,12.6,69.7c5.4,11.2,13.5,20.5,22.5,29c2.1,2,4.5,3,7.1,0.8c2.4-2.1,4.2-4.4,2.7-7.8c-0.5-1.2-1.2-2.4-1.9-3.5
			c-18-28.6-28.6-59.9-34.9-92.9C421.3,19.9,420.3,17.4,419.6,15z M897.6-294.3c-13.6,3.5-14.6,5.8-10.5,18.3
			c3.1,9.4,6,19.1,7.5,28.9c6.2,38.7,1.6,76.1-13.8,112.2c-1.3,2.9-2.1,6-3.5,9.8c5,0.9,8.8,1.6,12.3,2.3
			C903.1-151.5,909.8-266.6,897.6-294.3z M584.8,152.1c12.7-7.9,25.6-14.9,40-18.1c6.1-1.4,9.8-4.6,13.1-9.6
			c13.8-21.4,30.6-40.2,50.9-55.8c1.6-1.2,3-2.8,4.5-4.2C649,83.8,613.2,113.5,584.8,152.1z M887.4-112c-0.5-0.4-0.9-1-1.5-1.3
			c-0.6-0.3-1.2-0.6-1.8-0.7c-8-2.1-9.3-1-9.7,7.2c-0.2,5-0.1,10-0.9,14.9c-7,47.4-26.7,88.8-58.4,124.7c-1.9,2.2-3.6,4.5-5.9,7.4
			c4.2,3.2,7.7,5.9,11.2,8.6C846.6,15.4,887.4-85.1,887.4-112z M551.2,183.2c-3.8-1.3-7.1-2.7-10.5-3.6c-24.9-6.5-45.2-20.6-63-38.7
			c-1.9-1.9-3.6-3.9-5.4-5.8c-2.3-2.4-5-3.2-8-1.2c-3.1,2-3.5,5-2,7.9c2.9,5.6,5.9,11.2,9.5,16.3c16.6,23.5,40.6,32.2,68.2,33.2
			C544.5,191.3,549.6,191.1,551.2,183.2z M472.1-265.5c-28.3,10-59.8,96.5-44.1,124.5c1.3-4,2.4-6.9,3.3-10
			c3.4-11.8,6.4-23.8,10.1-35.6c7.6-24.6,17.8-48.1,29.5-71C472.1-259.9,474.8-262.4,472.1-265.5z M1202.9,107.2
			c0.9,0.2,1.7,0.4,2.6,0.7c2.8-6.2,5.3-12.5,8.4-18.5c3.3-6.3,2.4-11.8-1-17.8c-12.8-22.7-30.7-40.7-50.9-56.6
			c-1.2-1-2.7-1.7-4.4-2.7c-2.3,5.8-0.9,9.8,2.8,13.9c19.6,21.9,33.5,46.8,40.5,75.5C1201.3,103.6,1202.2,105.4,1202.9,107.2z
			 M423.9-126.2c-6,5.1-6.7,5.7-10.1,13.8c-11.6,27-15,55-10.2,83.9c1.4,8.1,4.4,16,7,23.8c0.7,2,2.9,3.5,4.5,5.3
			c1.5-1.5,2.3-2,2.3-2.5c-1.5-40.9-0.1-81.6,7.8-122C425.3-124.2,424.6-124.8,423.9-126.2z M856.5-290.5
			c0.8-22.4-26-82.7-41.4-94.2c-0.2,1-0.7,1.9-0.7,2.8c1.6,22.3,6.1,44.1,15.8,64.3C835.7-306.1,842.8-295.6,856.5-290.5z
			 M869.4-293.6c10.4-30.7-14.9-104.1-50.4-115.3c-5.7,5.3-0.7,9,2.2,12.5c22.4,27.7,36.8,59.2,45.2,93.6
			C867.1-300,868.2-297.4,869.4-293.6z M693.8,620.9c2.9-9.5,2.7-74.2-0.6-83.5c-3.2,2.9-5.9,5.6-8.8,8c-6.6,5.4-9.4,12.1-9,20.9
			c0.6,12.6,0,25.2,0,37.8c0,13.8,1.1,15,14.8,17.1C691.2,621.3,692.2,621,693.8,620.9z M1188.4,170.2c6.7,2.2,9.4,0.5,9-5
			c-0.9-11.9-2-23.8-2.9-35.8c-0.5-6.9-4.3-11.5-9.3-15.7c-15.9-13.4-34.5-20.9-54.2-26.6c-4.8-1.4-7.4,0.4-8.8,5.3
			C1160.7,104.7,1186.8,127.2,1188.4,170.2z M910.4,620.7c3.6-0.3,5.2-0.3,6.8-0.5c12.6-2.1,13.1-2.6,12.9-15.2
			c-0.1-12.6-1.3-25.4-0.1-37.9c1.4-15.3-9.4-20.9-19.1-28.2C909.9,566,909,592.8,910.4,620.7z M579.3,172.5
			c18.1,5.3,75.3-10.9,86.1-24.3C644.7,133.4,598.2,147.9,579.3,172.5z M1158.2,476.2c18.9-17.7,32.9-62.8,28.7-79.4
			c-8.2,6.1-16.6,12.1-24.6,18.5c-1.9,1.5-3.9,4.2-3.9,6.4C1158,439.9,1158.2,458,1158.2,476.2z M673,161.1c-1.3-0.5-2.1-1.1-2.5-1
			c-2.5,0.9-4.9,1.9-7.3,3.1c-28.5,14-58.2,22.5-90.3,21.1c-1.3-0.1-2.9-0.4-3.9,0.1c-2.2,1.1-4,2.7-6,4.2c1.4,1.7,2.4,4.3,4.1,4.9
			c5.6,1.8,11.5,3.7,17.3,4.2c32.4,2.5,59.8-9.4,83.7-30.4C670.1,165.5,671.3,163.3,673,161.1z M867.3-132.2
			c9.2-16.8,14.3-34.6,17.6-53c5.1-28.5,1.9-56.3-5.8-83.9c-0.9-3.1-1-7.3-7-8.6C877.4-228.5,876.9-180.2,867.3-132.2z M535.1,506.7
			c-0.9,0.3-1.8,0.6-2.7,0.9c0,8.9,0,17.8,0,26.7c0.1,13.6,0.2,27.2,0.3,40.8c0,3.7,0.1,7.7,4.4,9.2c4.2,1.4,8.6,2.1,14,3.4
			c0.4-5.2,0.8-8.7,0.8-12.3c0.1-10.6-0.9-21.3,0.3-31.8C554,527.1,543.2,517.7,535.1,506.7z M687.3,152.5
			c35.2-2.6,101.3-70,102.6-105c-5.3,7.3-9.8,13.8-14.6,20.1c-5.1,6.6-10.2,13.1-15.7,19.4c-5.2,6-10.8,11.8-16.4,17.5
			c-5.9,5.9-11.9,11.7-18.1,17.2c-6,5.2-12.7,9.7-18.7,15C700.2,141.8,692.2,144.8,687.3,152.5z M808.3-352.9
			c-0.6,0.2-1.3,0.3-1.9,0.5c-0.5,47.8,7.3,94.1,26.3,138.3c0.7-1.4,0.9-2.7,0.7-3.9c-5.1-26.2-8.6-52.6-7.1-79.4
			c0.2-4-1.8-8.3-3.3-12.2c-3.4-9-7.4-17.8-10.6-26.9C810.5-341.9,809.6-347.5,808.3-352.9z M620.7,508.5c0.8,0.3,1.5,0.6,2.3,0.9
			c4.8-4.9,9.9-9.6,14.4-14.9c1.6-1.8,2.5-4.8,2.5-7.3c0.2-14.9,0-29.8,0-44.8c0-6.8-2.8-8.4-13.6-9.3c-5.1-0.4-5.9,1-6,8.9
			c-0.2,18.9-0.2,37.8-0.3,56.7C620,502.1,620.5,505.3,620.7,508.5z M715.5,64.8c-22.5,7.7-63.7,48.9-66.9,66.3
			c8.4,2.2,16.8,4.3,26.7,6.9C680.4,108.1,695.3,85.1,715.5,64.8z M1054.7,586.8c17.5-1.8,17.5-1.8,17.5-17.4
			c0-18.3,0-36.5-0.1-54.8c0-2.4-0.6-4.7-1.3-9.1c-6,8.2-10.9,14.4-15.1,21.1c-1.7,2.6-2.6,6.2-2.6,9.3c-0.2,13.9,0,27.9,0.2,41.8
			C1053.3,580.6,1054.1,583.4,1054.7,586.8z M1224.5,299c13-2.9,20.4-10.9,20.9-23.3c0.6-15.6,0.2-31.3,0.2-46.9
			c0-1.3,0-3.3-0.7-3.7c-1.4-0.8-4.1-1.4-4.8-0.7c-1.4,1.6-2,4.1-2.9,6.2c-2.4,6.2-3.7,13.2-7.4,18.4c-6.8,9.7-8.2,20-7.3,31.2
			c0.3,4,0,8,0.3,12C1222.9,294.2,1223.8,296.3,1224.5,299z M1134.7,77.8c21.2,4.8,38.7,13.7,54.9,25.8
			c-6.4-24.4-15.9-46.7-34.2-66.6c-2.7,7.7-4.8,13.5-6.9,19.2c6.4,6.7,16.2,9.1,19.3,19c-10.3,2.5-16.5-6.8-25.5-8.1
			C1140.1,70.2,1138.1,73.1,1134.7,77.8z M984,434.2c-3.4,0-5.1-0.2-6.7,0c-11,1.4-12.1,2.4-12.3,13.8c-0.2,10.6,0.6,21.3-0.1,31.8
			c-1,13.9,8.6,20.2,18.6,29.2C984.6,483.1,984,459.1,984,434.2z M1094.5,85.9c5.9,3.2,11,1.7,16-1.4c15.1-9.4,24-23.6,30.3-39.7
			c4.1-10.4,5.7-21.1,4.7-32.2c-0.7-7.9-4.9-13-11.9-16.1c-0.8,11.8-0.9,23-2.4,34.1c-1.5,11.4-6.6,21.8-13.6,30.7
			C1110.8,69.9,1102.5,77.5,1094.5,85.9z M994.6,503.6c19.4-24.2,19.4-24.2,19.1-51.5c-0.1-5.3,0-10.7-0.2-16
			c-0.1-2.2-0.7-4.5-1.2-7.8c-4.3,0.5-8.1,0.8-11.9,1.4c-3.9,0.6-5.7,3.2-5.7,7C994.6,458.4,994.6,480,994.6,503.6z M1204.7,376.4
			c-6,3.8-7,8.3-6.7,13.5c1.6,26.4-6.2,50.5-17.6,73.8c-0.9,1.8-1.2,3.8-2.5,8.1c7-4.9,11.7-8.5,16.7-11.7
			c6.6-4.2,10.1-10.2,12.1-17.5c4.6-16.7,4-33.6,1.7-50.5C1207.7,387.1,1206.1,382.1,1204.7,376.4z M607.1,501.8
			c0.9-0.3,1.9-0.7,2.8-1c0-21.6,0.2-43.1-0.1-64.7c-0.1-5.3-5.1-7.9-11.8-7.6c-5.7,0.2-6.1,4.3-6.2,8.4c-0.2,12.6-0.3,25.3-0.2,38
			c0,2.2,0.4,4.8,1.6,6.7C597.7,488.3,602.5,495,607.1,501.8z M806.6,24.9c34-39.1,55.7-83.3,56.5-136.1
			C851-63,830.8-18.2,806.6,24.9z M795.2,17.9c-21.4,15.5-41.2,29.9-61,44.1c-14.6,10.5-25.6,24-34.3,39.6c-1.1,2-1.9,4.3-3.4,8
			c8.8-9.3,15.9-17.6,23.9-25c15.9-14.6,32.3-28.7,51.1-39.6C781.7,39.1,789.1,30.2,795.2,17.9z M1219.7,431.8
			c7-6.1,13.8-12.4,14-22.5c0.3-17.1-4.8-32.7-14.6-46.6c-1.4-2-3.5-3.5-5.2-5.1c-4,2.6-3.2,5.4-2.1,8.3
			C1219.8,387,1222,408.9,1219.7,431.8z M697.9,128.9c25.9-18.5,49.1-39.7,66.6-66.7C738.7,80.8,712.9,99.4,697.9,128.9z
			 M1221.2,335.8c-4.5,6.7-2.7,10.5,0.8,14.3c8.6,9.5,13.8,21,17.9,33.1c1.4,4.2,2.1,8.5,3.3,13.8c9.2-13.5,9.9-25.6,0.7-37.8
			c-3.4-4.5-6.3-9.5-10.1-13.6C1230.3,342,1225.8,339.2,1221.2,335.8z M665.4,567.6c-17.4,11.1-19.6,15.1-19,32.4c0,1,0.1,2,0.1,3
			c-0.3,5.6,2.6,8.7,7.8,9.9c3.4,0.8,6.9,1.2,11.1,1.9C665.4,598.8,665.4,584,665.4,567.6z M1042.6,546.4
			c-17.3,15.6-21.9,28.8-17,47.8c2.8-0.4,5.7-0.6,8.5-1.3c8.5-2,9-2.6,9.1-11.3c0.1-7.6,0-15.2-0.1-22.8
			C1043.1,554.9,1042.8,551.1,1042.6,546.4z M836.2-289c-0.3,25.8,3,49.2,8.9,72.3c0.2-21.1,3.5-41.5,10.9-61.2
			C849.4-281.7,843.7-284.8,836.2-289z M939,615.3c6-1.6,10.7-2.6,15.3-4.1c1.4-0.4,2.7-2,3.3-3.4c6.4-13.9-1.1-30.9-17.5-37.7
			C940,585,937.9,599.2,939,615.3z M579.8,594.7c5.4-18.7-1.8-37.7-17.8-46.9c0,10.4,0,20.3,0,30.3c-0.1,12.8,0.6,13.7,13.3,16.3
			C576.6,594.6,577.9,594.6,579.8,594.7z M860.2-169.4c5.8-29.8,6.6-59.7,2-89.7C852.7-229.4,857.8-199.4,860.2-169.4z M1208,191.6
			c0,0.1,0,0.2,0,0.4c8.9,0,17.9,0,26.8,0c3.5,0,6-1.2,5.9-5c-0.1-3.8-2.7-4.8-6.1-4.8c-17.2,0.2-34.5,0.3-51.7,0.6
			c-3.2,0-6.2,1.2-5.8,5.1c0.3,3.4,3.3,3.7,6,3.7C1191.4,191.7,1199.7,191.6,1208,191.6z M1208.8,202.4c0,0,0,0.1,0,0.1
			c-8.3,0-16.7-0.1-25,0c-2.9,0-6.8-0.6-6.9,3.7c-0.1,4.5,3.9,4.6,7.2,4.8c2,0.1,4,0.1,6,0.1c11,0,22,0,33,0c3.7,0,7.4,0.4,10.9-0.3
			c2.1-0.5,4.9-2.7,5.2-4.6c0.7-3.7-2.8-3.8-5.5-3.8C1225.5,202.3,1217.1,202.4,1208.8,202.4z M955.4,479.5c0-12,0-22.6,0-33.1
			c0-3.7-0.1-7.9-5.6-7.2c-8.9,1.2-11.1,2-11.8,7.7C936.4,461.1,941.8,471.3,955.4,479.5z M652.3,438.7c-3.3,9.5-3.1,33.5,0.2,40.8
			c4-4.2,8.1-8.1,11.6-12.4c5.3-6.5,4.1-14.3,3.1-21.9c-0.2-1.5-2.3-3.4-3.9-4C659.7,440,655.9,439.5,652.3,438.7z M565.1,422.9
			c-4.1,12.9,4.4,32.5,16.5,38c0-8.5,0.2-16.7,0-24.9c-0.3-10.6-1.1-11.4-11.9-13C568.3,422.8,567,422.9,565.1,422.9z M1222.3,96.5
			c-5.6,7.4-6.9,13.3-4.1,20.3c4.4,10.9,6.2,22.4,6.1,34.2c0,5.3,0,10.7,0.4,16c0.1,1.2,2.1,2.3,5.1,5.3
			C1230.9,145.7,1230.9,121.7,1222.3,96.5z M1023.9,458.8c1.1,0.4,2.1,0.7,3.2,1.1c5-7.7,10.4-15.2,14.9-23.2c1.5-2.6,1-6.4,1.1-9.7
			c0-1.1-1.1-3.3-1.8-3.3c-4.2,0-8.4,0.2-12.6,0.8c-3.5,0.5-4.8,3.2-4.8,6.5C1023.9,440.3,1023.9,449.6,1023.9,458.8z M1239.2,335
			c6,8.9,11.5,17,17.8,26.3c3.1-13.4,7.3-25.4,6.7-39.2C1254.8,326.7,1247.3,330.7,1239.2,335z M944.5,276.4c0.5-4.6,0.3-8.1,1.5-11
			c0.8-2,3.4-4.2,5.5-4.6c1.5-0.3,4.3,1.8,5.3,3.5c1.5,2.7,1.9,6,2.9,9.4c6.8-7.1,6.7-14.2,0.4-20.1c-5.5-5.1-13.7-4.9-18.8,0.4
			C935,260.5,935.7,268.7,944.5,276.4z M1208.5,120.3c-0.7,0.2-1.4,0.3-2.1,0.5c0.6,15.5,1.2,31,1.8,46.5c0,0.3,0,0.7,0.2,1
			c0.8,0.9,1.8,2.6,2.5,2.6c1.4-0.2,3.2-1.1,3.9-2.3c0.7-1.3,0.6-3.2,0.5-4.9c-0.7-9.9-1.2-19.9-2.5-29.8
			C1212.3,129.3,1210,124.8,1208.5,120.3z M625.4,605.7c5,0.4,8.6,1.8,10,0.6c3.5-3,2.9-7.3,0.4-12.5
			C632.4,597.7,629.7,600.7,625.4,605.7z M1002.6,271.2c0.9,0.1,1.7,0.2,2.6,0.3c1.2-1.8,3.6-3.8,3.4-5.5c-0.2-1.9-2.7-3.6-4.2-5.4
			c-1.4,1.5-3.7,2.8-3.9,4.4C1000.3,267,1001.9,269.2,1002.6,271.2z M601.9,599.2c-3.8-5.5-6.3-9.2-9.5-13.9
			C589.6,596.5,590,597.2,601.9,599.2z M978.5,605.3c-2.5-4.8-4.5-8.2-10.2-9c0.2,3.9,0.4,7,0.7,11.3
			C972.6,606.8,975.2,606.1,978.5,605.3z M1011.9,587c-2.5,3.7-5.1,7.3-8.4,12.1C1014.6,597.4,1014.6,597.4,1011.9,587z
			 M928.5,453.6c0-9.8,0-9.8-7-6.2C923.5,449.2,925.1,450.6,928.5,453.6z M677.3,452.7c2.4-3.2,3.7-5,5.9-7.9
			C676.6,444.5,676.2,447,677.3,452.7z M554.4,422.2c-1.5-1.2-2.3-2-3.3-2.6c-0.2-0.1-1.5,1.2-1.4,1.7c0.2,0.8,0.9,1.7,1.7,2.1
			C551.9,423.6,552.8,422.9,554.4,422.2z M1158.9,400.9c0.4,0.7,0.8,1.4,1.2,2.1c1.6-1,3.1-2,4.7-3c-0.2-0.4-0.5-0.9-0.7-1.3
			C1162.3,399.5,1160.6,400.2,1158.9,400.9z"/>
		<path d="M747.9,329.1c17.1,9,88.5,9.3,109.2,0.8c-15.1-5.2-29.8-6.2-44.1-6.1c-1.1,0.7-2,0.9-2.2,1.4c-1.8,4.8-4.4,8.5-10.3,7
			c-5.7-1.5-4.5-6.7-4.8-10.8c-0.2-2.6-0.3-5.5,0.4-7.9c0.7-2.3,2.3-5.5,4-5.9c2.4-0.5,6.6,0.5,7.7,2.3c2.4,4,5.7,3.9,9.3,4.3
			c14.9,1.7,29.8,3.2,44.5,5.6c4.7,0.7,9.4,3.4,13.5,6.1c4,2.7,4,6.2-0.1,8.9c-3.8,2.5-8.2,4.9-12.6,5.7
			c-12.8,2.2-25.6,4.5-38.5,5.1c-24.6,1.1-49.3,1.4-73.7-3.3c-5.8-1.1-11.8-2.5-17.1-5c-8-3.8-8.1-10.3,0-13.6
			c8.5-3.4,17.7-5.7,26.8-7.2c9.2-1.5,18.6-1.5,27.9-1.9c2.6-0.1,6.2,0.2,5.5,3.9c-0.4,1.9-3.3,4.3-5.3,4.6
			c-9.5,1.5-19.2,2.2-28.7,3.5C755.9,326.9,752.6,328,747.9,329.1z"/>
	</g>
</g>
</svg>
