<?xml version="1.0" encoding="utf-8"?>
<!-- Generator: Adobe Illustrator 28.4.1, SVG Export Plug-In . SVG Version: 6.00 Build 0)  -->
<svg version="1.1" id="Layer_1" xmlns="http://www.w3.org/2000/svg" xmlns:xlink="http://www.w3.org/1999/xlink" x="0px" y="0px"
	 viewBox="0 0 1061.6 1284.4" style="enable-background:new 0 0 1061.6 1284.4;" xml:space="preserve">
<g>
	<g>
		<path d="M625.4,834.9c-2.9-8.2-6.3-15.1-7.9-22.5c-5.1-23.4,7-45.8,29.4-55.1c18.8-7.8,44.6-4.1,57.9,17.9
			c6,10,11.6,12.6,23.5,11.6c38.5-3.3,77.1-4.5,115.7-6.6c7.6-0.4,15.3-1,22.9-2.1c9.8-1.5,18.5-5.1,23.6-15.5
			c-2.1-1.2-3.7-2.4-5.4-2.9c-4.1-1.4-5.7-4.2-5.7-8.3c0.1-10.7,0.3-21.3,0-32c-0.2-8,6.2-8.3,12.3-10.1c-2.1-22.5-9-42.2-29.2-54.1
			c-9.9-5.8-21-10.3-32.2-13.1c-64.8-16.3-130.2-28.6-197.5-25.1c-38.8,2-76.7,8.5-113.5,21.2c-5.9,2-10.7,5.3-14.6,10
			c-6.3,7.4-12.4,14.9-19,21.9c-35.1,37.4-75.4,67.7-123,87.2c-26.7,11-54.5,18.2-83.6,17.4c-47.7-1.2-88.9-18.3-122.3-53.1
			c-35-36.6-54.7-80.7-64.8-129.6c-12.5-60.3-10.3-120.5,1.1-180.7c12.2-64.5,34.4-125.1,66.7-182.1c26-45.9,57.6-87.4,97.2-122.3
			c35.7-31.4,75.4-56.1,122.3-67.1c44.3-10.4,87.4-7.8,128.4,13.4c29,15,52.1,36.6,70.5,63.6c23.7,34.8,36.9,73.7,43.9,114.8
			c3.2,18.7,4.2,37.7,6.6,56.5c0.5,4.2,1.7,8.5,3.7,12.2c16.7,30.9,37.7,58.9,60.5,85.6c46,53.9,99.8,98.8,158.8,137.7
			c10.3,6.8,20.3,14,30.2,21.3c48.7,35.8,73.9,83.7,73.8,144.4c0,5-0.2,10,0.3,15c0.2,2,1.8,3.8,2.8,5.7c2.1-1.2,4.4-2.2,6.2-3.8
			c1.1-1,1.4-3,2.2-4.4c7.2-11.5,17.3-17.2,31.1-15.7c15,1.6,25.5,14.7,23.6,29.3c-1.9,14.5-12.9,21.8-30.4,18.9
			c-0.5,3.7-1.5,7.4-1.5,11.2c-0.1,28.7-0.5,57.3,0.1,86c0.6,34.1-4.8,67.1-18.2,98.5c-18.4,43.2-47,77.1-90.2,97.4
			c-6.9,3.2-10.1,7.1-9.8,15.1c0.6,16,0.2,32,0.2,48c0,3.6,0.4,7.2,0.6,10.5c1.6,0.7,2.5,1.4,3.4,1.4c13.2,0.2,22.8,6.1,29.4,17.5
			c1.3,2.3,4.9,3.3,6.9,5.4c3.7,3.7,8,7.3,10.1,11.8c4.4,9.5,1.2,14.7-8.8,17.1c-49.2,11.8-98.4,23.7-147.7,35.4
			c-76.5,18.2-153,36.1-229.5,54.5c-12.9,3.1-25.1,3.6-38.2,0.4c-60.8-15-121.8-29.3-182.7-43.8c-55.7-13.3-111.5-26.5-167.2-39.8
			c-12.6-3-25.1-6.1-37.2-9.1c-2.5-13.6,0.3-19.9,10.5-26.3c2.8-1.7,6-3.5,7.6-6.1c6.1-9.9,14.6-15.3,26.2-15.9
			c1.3-0.1,2.5-0.6,4.8-1.3c0.4-3,1.3-6.1,1.3-9.3c0.1-48.7,0.2-97.3,0.2-146c0-7.5-0.8-8.3-8.2-10.2c-1.3-0.3-2.6-0.6-3.9-0.8
			c-12.5-2.5-12.5-2.5-12.4-15.6c0-4.3,0.1-8.7,0.3-13c0.5-8.2,1.1-9.1,9.1-10.3c17.8-2.8,35.6-5.4,53.4-8.1
			c19.4-2.9,38.9-5.8,58.3-8.8c9.8-1.5,10-1.6,11.5-11.4c0.7-4.8,3.1-8.2,7.3-10.1c6.3-2.9,12.7-6.4,19.4-7.7
			c22.9-4.5,45.8-9.3,68.9-11.9c58.3-6.6,116.9-9.3,175.6-7.8c26,0.7,51.9,2.5,77.9,3.7C620.9,835,622.9,834.9,625.4,834.9z
			 M279.9,869.1c4.9,2.8,7.9,5.3,11.4,6.5c6.3,2.1,12.8,3.5,19.3,4.9c52,11.6,104.9,14,157.9,15.2c44.2,1,88.6-0.3,132.8-1.5
			c34.6-0.9,69.1-4.2,103.3-10.2c13.4-2.4,26.5-6.3,39.7-9.8c2.5-0.7,4.7-2.7,7.4-4.3c-10.7-9-59.6-20.4-72.9-17.5
			c-0.4,7.6-9.1,11.6-9.1,19.9c0,1-3.3,3.2-4.4,2.8c-1.8-0.6-3.8-2.5-4.6-4.4c-2.7-5.8-4.7-11.9-7.4-17.7c-0.7-1.5-2.9-2.8-4.7-3.3
			c-3.5-1.1-7.1-2-10.7-2.3c-21.9-1.6-43.8-3.5-65.8-4.2c-51.3-1.6-102.5-1.4-153.8,1.5c-38.3,2.1-76.3,6.5-113.8,14.5
			C296.5,860.9,288.9,862.9,279.9,869.1z M765.9,888.3c-4.1,10.1-11.2,14.2-19.2,17.1c-6,2.1-12,4-18.1,5.5
			c-33.8,8.3-68.3,11.4-102.8,13.7c-85.2,5.7-170.4,4.8-255.5-3.6c-26.2-2.6-52.2-6.5-77.6-13.8c-8.2-2.3-16.4-5.4-21-12.6
			c-3.8-6-8-5.9-13.5-5c-16.1,2.6-32.3,4.9-48.4,7.6c-9.7,1.6-19.4,3.5-29.1,5.2c3,2.5,6.1,3.5,9.2,4c38.3,7.1,76.6,14,114.9,21.1
			c67.4,12.6,134.8,25.4,202.3,37.8c5.5,1,11.4,1.4,16.8,0.4c41.6-7.7,83-15.9,124.6-23.7c54-10.1,108-20,162-30
			c13.5-2.5,27-5.2,40.5-7.8c0-0.6,0-1.3-0.1-1.9C822.9,897.8,794.7,893.1,765.9,888.3z M925.3,811.6c-2,0.2-3.1,0.1-3.9,0.5
			c-13.1,7.7-27.4,9.3-42.3,9.1c-49.6-0.4-99.2-0.5-148.8-0.7c-4.7,0-9.3-0.1-14,0.1c-1.9,0.1-4.5,0.5-5.4,1.8
			c-4.7,6.1-8.9,12.6-13.5,19.3c11.3,2.4,21.8,4.2,32.1,6.9c8,2.1,15.9,4.8,23.6,8c5.6,2.3,10.9,6.2,11.2,12.9
			c0.3,6.8,4.2,8.1,9.6,8.9c11.5,1.8,23,3.9,34.5,5.7c26.6,4.2,53.2,8.4,79.9,12.6c7.9,1.2,8.5,1.8,9.2,10.2c0.3,3.8,0.7,7.6,1,11.4
			c0.9,0,1.7,0.1,2.6,0.1C926.8,887.1,927.4,849.9,925.3,811.6z M455.9,487.2c0.2,5.1,0.2,8.4,0.6,11.7c2.2,18,10.4,32.1,27.2,40.3
			c12.8,6.2,21.3,4.4,31.2-5.7c21.1-21.6,33.1-48,40.8-76.6c2.3-8.7,4-17.5,5.3-26.4c0.4-2.9-0.2-7.3-2.1-9
			c-21.8-18.7-43.2-18.1-63.3-5.7C468.6,432.6,457.5,458.3,455.9,487.2z M601.1,475.8c1,0.9,1.6,1.8,2.4,2.2
			c72.7,31.3,145.5,62.6,218.2,93.9c2.7,1.2,5.6,1.9,8.5,2.8c0.3,0.1,0.6-0.1,1-0.2c0.3-0.1,0.6-0.3,1-0.5c3.7-4.9,0.8-7.6-3.5-10
			c-15.2-8.2-30.6-16.1-45.7-24.7c-59.1-33.5-114.2-72.2-159.7-123.3c-1.1-1.2-2.4-2.1-4.5-3.8C612.8,433.8,607,454.5,601.1,475.8z
			 M219.1,278.8C278,319.2,338.2,357,399.7,394.5c4.2-6.1,7.9-11.4,11.2-16.2c-46.8-42-92.4-83-138.5-124.3
			C257.2,267.1,239.5,275,219.1,278.8z M433.8,355.6c-17.3-19.8-33.8-38.1-49.4-57c-15.7-19-30.8-38.4-45.6-58
			c-14.6-19.4-28.4-39.3-42.9-59.3c-1.5,11.9-1.9,22.6-4.3,32.8c-2.4,10.6-6.7,20.7-10.6,32.6c44.2,41.5,89.1,83.8,137.8,122.6
			C424.2,364.4,428.8,360.2,433.8,355.6z M458.4,338.6c-36.4-54.1-68.8-108.9-96-167.6c-20,7.9-39.2,6.4-59-0.7
			c14.9,32.2,121.5,166.4,141,177.7C448.5,345.2,452.8,342.3,458.4,338.6z M571.1,548.2c1.4,0.9,1.9,1.6,2.5,1.6
			c1.6,0.1,3.3,0.2,5,0c28.6-3.5,57.2-2.8,85.7,1.3c41.6,6,82.3,15.8,122,29.9c10.3,3.7,20.7,7.4,31.1,11c4.5,1.6,7.9,0.8,8.2-4.7
			c-5.6-4.2-220.3-96.8-228.7-98.6C588.2,508.4,579.6,528.4,571.1,548.2z M170.5,403.5c0.2,0.6,0.3,1.3,0.5,1.9
			c34.2,7.4,68.5,14.7,102.7,22.4c34.2,7.7,68.4,15.9,103.4,24.1c1.6-6.7,3.1-12.6,4.5-18.3c-16.4-9.5-158.4-68.6-166.8-69.4
			C204.9,382.3,190.2,395.6,170.5,403.5z M214.1,290.2c0,2.3-0.2,3.3,0,4.1c5.6,16.9,9.8,33.9,6.4,51.9c-0.8,4.1,0.6,7.1,4.7,8.7
			c2.8,1.1,5.5,2.4,8.2,3.6c48.7,20.7,97.3,41.3,146,62c1.7,0.7,3.6,1,6.1,1.7c2.8-6.1,5.5-11.7,8.4-17.9
			C333.9,366.1,274.4,328.4,214.1,290.2z M486,328.8c-11.2-23.7-22.3-45.7-32-68.3c-9.6-22.3-18.6-45-26.4-68
			c-7.8-23.1-13.7-46.9-21.1-72.8c-7.7,20.3-17.8,36-34.8,47c27.8,59.4,59.8,115.1,97.2,168.2C475.1,332.6,480,330.9,486,328.8z
			 M170.9,416.7c-0.4,0.6-0.7,1.2-1.1,1.8c1.6,2.3,3.2,4.7,4.9,7c7.5,9.9,13.5,20.5,15.9,32.9c2.2,11.6,2.4,11.5,14.1,11.9
			c1,0,2,0,3,0.1c50.9,0.6,101.7,4.1,152.3,9.8c3.9,0.4,7.8,0.1,12.9,0.1c0.6-5.9,1.1-11.3,1.6-17.2
			C306.3,445.4,238.9,429.5,170.9,416.7z M120.7,1143.3c6.2,1.8,12.1,3.8,18.1,5.3c28.1,6.9,56.3,13.6,84.5,20.3
			c50.8,12.1,101.7,24.1,152.5,36.2c40.8,9.7,81.6,19.5,122.4,29.1c4,0.9,8.1,1.3,12.1,1.9c3.1-13.8,2.4-15.2-9.2-18
			c-26.5-6.5-53.1-12.8-79.6-19.1c-91.6-21.8-183.3-43.6-275-65.3c-4.5-1.1-9.2-1.9-13.8-1.8
			C126.5,1132.1,122.2,1135.3,120.7,1143.3z M911.4,1143c-1.4-7.5-2.9-9.7-8.9-10.2c-4.2-0.4-8.7,0-12.8,1
			c-18.8,4.4-37.5,9.2-56.3,13.6c-69.4,16.3-138.8,32.6-208.2,48.8c-30.5,7.1-61,14.2-91.5,21.3c-2.3,0.5-4.5,1.1-6.8,1.8
			c-3.3,0.9-5.2,3-5.1,6.5c0.1,3.2,0.5,6.4,0.7,9.5C531.7,1235.9,896.3,1149.2,911.4,1143z M329.4,1139c4-3.6,7.4-6.6,10.7-9.8
			c15.3-15.3,30.6-30.6,45.9-45.9c15.2-15.4,30.5-30.7,45.5-46.3c2.5-2.6,5.6-5.7,6-8.9c0.9-7.4,0.3-15,0.3-22.5
			c-0.7-0.3-1.5-0.7-2.2-1c-3.2,3.1-6.5,6.1-9.7,9.2c-29.4,29.4-58.8,58.9-88.2,88.3c-2.5,2.5-5.4,4.5-8.9,7.3
			c-3.2-3.9-5.7-6.9-8-10c-31.9-43.9-63.8-87.8-95.7-131.7c-1.6-2.2-3.5-4.1-6-6.9c-2.9,19.1-2,23.5,7.8,37
			c32.1,44.6,64.3,89.1,96.4,133.6C324.9,1133.9,326.9,1136,329.4,1139z M703.6,1138.4c2.4-2.7,4.6-4.8,6.3-7.1
			c33-45.7,65.7-91.5,98.9-136.9c7.5-10.2,6.1-20.9,5-32.3c-37.1,49-72.6,98.9-109.7,148.8c-36.4-36-70.2-72.3-108-105.3
			c-1.2,5.7-1,10.9-1.3,16.1c-0.4,6.9,2.4,12,7.2,16.8c29,28.5,57.8,57.2,86.7,85.8C693.4,1128.9,698.3,1133.4,703.6,1138.4z
			 M148.8,909.5c-2.7,13-1.4,15.2,9.1,17.6c2.6,0.6,5.2,1.3,7.8,1.7c51.1,9.4,102.2,18.5,153.2,28.2c48.8,9.2,97.4,18.9,146.1,28.4
			c12.7,2.5,25.5,5,38.2,7.5c3,0.6,6.1,1.2,7.8-2.4c3.2-7.1-0.4-13.9-8.3-15.4c-49.8-9.2-99.5-18.4-149.3-27.7
			c-62.5-11.6-125.1-23.3-187.6-34.9C160.4,911.5,154.9,910.6,148.8,909.5z M165.2,530.5c0.4,0.5,0.8,0.9,1.2,1.4
			c1.3-0.2,2.6-0.4,3.8-0.7c23.6-4.3,47.1-9.2,70.8-12.6c40.6-5.9,81.5-8.4,122.6-8.4c10,0,11.4-2.2,10-12.1
			c-0.9-6.5-5.5-6.7-10.2-7.1c-25.5-2.4-51-5.2-76.6-7c-28.2-2-56.6-3.3-84.8-4.7c-10.6-0.5-10.9-0.3-13.3,10.3
			c-2.9,12.7-8.9,23.6-17.2,33.5C169.4,525.5,167.3,528,165.2,530.5z M885.7,909.6c-2.9,0.3-4.6,0.2-6.2,0.6
			c-20.9,4-41.8,8.2-62.7,12.1c-69.7,13-139.3,25.9-209,38.8c-25.5,4.7-51,9.4-76.5,14.2c-8.5,1.6-9.3,2.7-9.2,11.2
			c0,1.9,0.5,3.8,1,6.8c4-0.4,7.5-0.5,11-1.2c35.6-6.8,71.3-13.6,106.9-20.4c52.3-10,104.6-20.1,156.8-30
			c27.4-5.2,54.9-10.4,82.4-15.4c4.8-0.9,7.1-3.3,6.8-8C886.8,915.6,886.2,913.1,885.7,909.6z M379.6,536.2
			c-0.7-14.5-2.4-16.9-12.5-16.3c-34.5,2-69.2,3.2-103.6,6.9c-30.4,3.3-60.4,9.5-90.6,14.6c-2.4,0.4-4.7,1.5-7.4,2.4
			c8.2,5.1,16.5,9,23.1,14.6c6.7,5.7,11.8,13.2,18.1,20.5C262.4,558.2,319.8,542,379.6,536.2z M139.5,1122c4,1.3,6.4,2.2,8.9,2.8
			c9.4,2.2,18.9,4,28.3,6.3c72.2,17.2,144.5,34.3,216.7,51.6c34,8.1,68,16.5,101.9,24.6c5,1.2,10,3.5,15.2,1.6
			c2.4-12.7,2-13.6-9.6-16.3c-29.8-7-59.7-13.7-89.5-20.8c-75.8-18.1-151.5-36.3-227.3-54.3c-8.7-2.1-17.6-3.5-26.5-4.4
			C150.7,1112.4,144.7,1114.7,139.5,1122z M894.2,1122.3c-5.5-8.5-12.2-9.9-19.3-9c-8.9,1.2-17.7,3-26.4,5.1
			c-72.3,17-144.5,34.1-216.7,51.1c-33.4,7.9-66.8,15.4-100.2,23.4c-10.3,2.5-11.2,4.9-7.4,17C647,1181.3,769.9,1152,894.2,1122.3z
			 M834.9,554.9c2.6-6.4,0.1-9.3-4.1-11.8c-11.6-7.2-23.1-14.5-34.5-22c-64.2-42.5-120.9-92.7-163.5-157.6c-1.3-2-3.2-3.5-5.7-6.3
			c-1.7,10.5-2.7,19.4-4.8,28.1c-2.1,8.5,0.8,14.5,6.3,20.6c24.3,27.1,51.3,51.2,80.6,72.9c37.5,27.9,78.5,50.2,119,73.1
			C830.1,553,832.3,553.7,834.9,554.9z M202.1,641.3c57.6-41.2,120.7-67.5,188.1-83.6c-3.4-11.2-4.6-11.8-17.3-10.2
			c-34.7,4.4-69,11-102.6,21c-18.5,5.5-36.7,12-55.1,17.9c-4.9,1.6-6.7,4.1-6.2,9.5c0.6,6.9,0.5,14-0.6,20.8
			C207.3,624.5,204.6,632,202.1,641.3z M752.5,884.7c-2.4,0.4-4.2,0.6-6.1,1c-22.8,4.6-45.5,11.2-68.5,13.4
			c-41.7,4-83.7,6.5-125.6,7.8c-60.6,1.9-121.3-0.1-181.7-6.3c-29.2-3-58.2-6.9-86.2-16.4c-1.1-0.4-2.4,0-3.9,0
			c-1.1,6.5,3.2,9.1,7.4,10.5c8.8,3.1,17.7,6,26.8,7.8c42.2,8.6,85.2,11.3,128,13.9c43.2,2.7,86.6,2.8,129.9,0.5
			c48.9-2.6,97.8-5.3,146-14.5c9.1-1.7,18-4.8,26.8-7.8C749.3,893.2,753.1,890.9,752.5,884.7z M812.3,602.8
			c-1.3-0.8-2.2-1.7-3.4-2.1c-13.8-4.9-27.4-10.4-41.4-14.6c-31.3-9.4-63-16.9-95.2-22.3c-33.8-5.7-67.6-6.3-101.5-2.4
			c-3.1,0.4-7.2,1.5-8.7,3.7c-6.6,9.8-12.4,20.2-19.5,32.1c4.6-1.1,7.1-1.5,9.5-2.2c25.1-7.2,50.6-11.6,76.7-12.7
			c46.3-1.9,91.7,4.2,136.5,15.2c12.6,3.1,25.1,6.5,37.7,9.8C807.2,608.4,810.8,608.6,812.3,602.8z M554.5,362.3
			c0.4-6.6-3.7-9.4-7.6-11.8c-14.8-9.2-30.8-14.5-48.4-12.3c-26.1,3.2-48,15.1-66.7,33.3C416,386.9,404.3,405,396,425.2
			c-13.6,33.1-16.9,67.2-6.7,101.7c6.6,22.4,20.3,39.6,42.7,48.5c5,2,10.3,4.3,16.1,2.2c-0.3-0.8-0.3-1.3-0.5-1.4
			c-1.4-0.9-2.8-1.8-4.3-2.5c-18.4-9.4-30.7-24.2-38.1-43.3c-5.7-14.8-8.6-30-7.8-46c0.9-19.2,5-37.7,12.5-55.3
			c14.1-32.7,36.3-58,69.5-72.5c18-7.9,36.8-9.5,55.6-3.6C541.6,355.1,547.5,358.9,554.5,362.3z M423.2,129.1
			c-0.7,0.4-1.3,0.9-2,1.3c0.8,3.8,1.3,7.7,2.3,11.4c11.2,42.6,25.2,84.2,44,124.1c8.6,18.4,17.9,36.5,27.3,54.4
			c4.1,7.7,4.8,7.5,15.7,5.2c-1.2-3.4-2.2-6.8-3.6-10c-11.4-27-21.1-54.7-27.6-83.3c-4.8-21.4-9-43-13.1-64.6
			c-0.9-4.8-2.8-7.7-7.4-9.4c-12.2-4.5-21.6-13-30.3-22.3C426.6,133.8,425,131.3,423.2,129.1z M734.7,808.9c2.4,0.2,5,0.6,7.6,0.6
			c39.6,0.2,79.3,0.4,119,0.6c9,0,18,0.2,27-0.1c26.1-0.9,45.2-15.8,51.5-39.5c2-7.7,1.1-9.1-6.5-9.3c-6.7-0.2-13.3,0.2-20-0.2
			c-6.3-0.4-10.4,1.5-13.5,7.5c-5.9,11.3-15.8,17.8-28.3,20.2c-5.9,1.1-11.9,1.9-17.8,2.2c-26.9,1.6-53.9,3-80.8,4.5
			c-10.6,0.6-21.3,1.2-31.9,2.1C733.6,798.2,732.8,799.8,734.7,808.9z M474,567.8c-2.9-1.5-5.1-2.9-7.4-3.9
			c-16.3-7-28.4-18.2-36.3-34.2c-10-20.4-10.9-41.6-6.4-63.4c6.8-32.7,22.4-60,50.7-78.5c25.8-16.9,52.9-21.4,80.8-4.2
			c0.9,0.6,2.3,0.5,5.1,1c-1.6-3.2-2.1-5.6-3.5-7c-2.9-2.8-6-5.4-9.4-7.4c-21.8-13-44.3-12.7-67.1-3.2
			c-17.1,7.1-30.2,19.2-41.6,33.5c-28.9,36.4-38.8,77.2-25.6,122c7.1,24.1,23.3,40.9,48.8,46.9C465.7,570.2,469.7,571.5,474,567.8z
			 M208.5,649.5c2.8,0.5,4,0.9,5.2,0.8c13.5-1,26.6,0.1,39,5.9c4.1,1.9,6.6-0.3,9.7-2.7c17.5-13.2,34.8-26.7,53-38.9
			c24.7-16.6,52.4-27.4,80.1-37.8c2.9-1.1,5.6-2.4,8.5-3.7c-2.5-6.5-6.4-5.4-10.5-4.6c-25.5,5-50.4,12.4-74.5,21.9
			c-36,14.2-70.7,30.8-102.7,52.7C214,644.9,211.9,646.8,208.5,649.5z M535.9,331.3c-5.7-20.1-12.2-39.3-16.4-59
			c-4.2-19.4-7.7-39.3-8.7-59.1c-1.1-19.9,1.3-40.1,2.1-60c-11.8,3.8-23.4,7.6-35.6,11.5c0.1,2.3,0.1,4.9,0.5,7.4
			c7.6,51.2,21.4,100.7,42.6,148C523.3,327.2,527.3,331.2,535.9,331.3z M490.8,554c-1.9-0.8-3.6-1.8-5.4-2.2
			c-9.4-2.4-16.7-7.9-23.1-15c-12.7-13.9-17.5-30.6-16.7-48.8c1.5-37.5,17.6-66.9,51.1-84.6c19.8-10.5,40.4-10.6,59.3,3.9
			c0.7,0.6,1.8,0.7,3,1.1c1.6-4.2,0.5-7.6-2.5-10.1c-4.4-3.5-8.8-7.3-13.8-9.6c-22.8-10.3-44.6-6.7-64.1,7.9
			c-36.6,27.5-51,64.9-45.2,109.7c3.6,27.4,22.8,46.2,48.3,50.5C485,557.5,488.2,558.4,490.8,554z M280.9,166.3
			c-22.5,18.2-70.2,79.1-74,99.1c23.7,5.7,55.3-9,67.8-31.6c10.7-19.3,11.2-40.1,8.4-61.2C282.9,170.7,281.9,168.9,280.9,166.3z
			 M630.9,321.1c-3.1,10.7-2.8,14.2,1.8,22.4c16.8,29.8,38.3,56.1,61.8,80.7c39.4,41.3,85.4,74.3,133.4,104.5
			c1.3,0.8,2.8,1.2,4.2,1.8c-0.6-3.8-2.2-6.6-4.5-8.6c-3.2-2.9-6.7-5.4-10.2-8c-71.8-52.2-134.4-113.2-182.6-188.3
			C633.9,324.1,632.4,322.8,630.9,321.1z M295,153.2c23,12.9,44.7,18,67.3,6.8c23-11.5,32.1-32.6,37.7-57.9
			C359.5,109,326.6,127,295,153.2z M569.6,1172.2c14.5,0.1,16-1.1,15.9-13.6c0-50.9-0.1-101.8-0.3-152.8c0-3.7-1-7.5-1.5-11.1
			c-14.2,0.2-15,0.8-15,12.4c-0.1,51.3-0.1,102.5,0,153.8C568.7,1164.7,569.3,1168.5,569.6,1172.2z M196.7,284.8
			c-19.9,35.1-34.6,71.6-41.9,111.2c17.5,0.9,40.4-14.8,49.6-34.6C216.9,334.8,213,309.3,196.7,284.8z M417.8,583.8
			c-30.7-1.4-136.8,56.8-149.9,80.7c4.7,10.7,9.1,20.9,13.9,31.8C316.7,645.6,362.7,609.3,417.8,583.8z M144,532.8
			c18.5-7.3,37.5-37.2,37.6-59c0-24.2-10.8-42.9-30-57.6C143,431.6,137.9,511.8,144,532.8z M794,619.5c0-0.7-0.1-1.5-0.1-2.2
			c-0.5-0.4-0.9-1.1-1.5-1.2c-41.8-13.1-84.8-20.2-128.4-22.7c-34.4-1.9-68.5,1.3-102,9.9c-8.7,2.2-17.3,4.9-25.7,7.9
			c-5.4,1.9-8.9,6.1-10.2,12.9c2.8-0.6,4.3-0.9,5.9-1.3c25.3-7.4,51-12.8,77.2-15.3c33.2-3.2,66.5-3.6,99.6,0.5
			c25.1,3.1,49.9,7.9,74.9,11.7C787.1,620.2,790.6,619.6,794,619.5z M145.7,551c4.4,37.6,15.3,70.5,36.9,100.3
			c18.9-22.5,22.2-52.6,9.9-72.4C182.2,562.3,167.2,553.2,145.7,551z M511.2,1183.3c0.3-4.1,0.7-8.3,0.7-12.5c0-52-0.1-104-0.1-156
			c0-1.7,0.1-3.3-0.1-5c-0.6-5-3.2-6.9-9-6.9c-4.8-0.1-6.4,2.6-6.5,6.9c0,1.3-0.1,2.7-0.1,4c0,52.7-0.1,105.3-0.1,158
			C496,1182.7,498.3,1184.3,511.2,1183.3z M522.7,1183.4c13,0.1,14.6-1.3,15-11.6c0.1-2,0.1-4,0.1-6c-0.2-49.6-0.4-99.2-0.6-148.8
			c0-3,0-6-0.5-9c-0.5-3.4-2.7-5.1-6.4-4.7c-6.6,0.6-8.2,2.8-8.2,11.9c-0.1,51.9-0.1,103.9-0.1,155.8
			C522.1,1174.9,522.4,1178.8,522.7,1183.4z M463.9,1173.3c0.3-5.2,0.9-9.4,0.9-13.6c0-44.6-0.1-89.2-0.2-133.8
			c0-7.3,0.1-14.6-0.1-22c-0.2-7.4-3.1-9.9-10.5-10c-4.6,0-5.5,1.5-5.8,9.3c-0.1,2-0.1,4-0.1,6c0,47.3,0,94.5,0,141.8
			c0,4.3,0.1,8.7,0,13c-0.1,4.4,2.2,6.8,6.3,7.7C457.2,1172.4,460,1172.7,463.9,1173.3z M529.1,109.4c2.8-5.5,4.9-9.3,6.7-13.1
			c3.9-8.4,4.1-8.7-3-14.2c-34-26.8-72.3-40.4-116-37.2c-1.9,0.1-3.7,1-6.5,1.8c0.7,7.7,1.4,15.2,2.3,23.8
			C460.4,55.9,497.8,71.2,529.1,109.4z M399.6,46.7c-52.6,8.2-94.7,33.1-133.6,66.7c4.3,6.9,7.9,12.7,12.3,19.8
			c29.9-43.9,69.3-66.2,123.3-61C400.9,63.4,400.4,56,399.6,46.7z M419,102.4c5.8,13.5,13.5,24.5,23.5,33.9
			c9,8.5,19.7,13.7,31.8,15.3c15.4,2,28.2-3.8,39.2-14.5C490.4,110.8,443.6,96.4,419,102.4z M992.3,723.1c10.2,2.3,15.9,0,17.6-6.3
			c3-10.8-4.8-20.5-16-19.9c-11.3,0.6-19,7.4-21.2,20.2c-1.4,7.8-1.8,15.9-1.9,23.9c-0.3,24.3,0,48.7-0.4,73
			c-0.3,18.1-9.4,29.3-26.6,33.8c-2.2,0.6-4.3,1.4-6.8,2.2c0,4.8,0,9.3,0,14c2.7,0.3,4.7,0.6,6.6,0.6c2,0,4-0.3,5.9-0.8
			c18-4.7,30.9-20.5,30.4-38.3c-0.9-31.6-0.1-63.3-0.2-95c0-6.8,0.8-13.3,4.6-19.1c2.5-3.9,6.1-6.5,10.9-5.3
			c1.9,0.5,4.1,2.4,4.9,4.2c0.5,1.1-1,3.5-2,5C996.4,717.9,994.5,720.2,992.3,723.1z M334.9,1090.2c3.7-3.1,6.1-4.7,8.1-6.7
			c19.1-19.1,38.1-38.2,57.1-57.4c9.4-9.4,18.8-18.9,28.1-28.4c1.9-1.9,3.2-4.4,4.9-6.8c-13.6-5.6-23.4-4.6-33.2,6.3
			c-18.4,20.6-38,40.2-58,59.3C331.6,1066.3,333.7,1076.9,334.9,1090.2z M695.8,1088.5c0.8-0.4,1.6-0.7,2.3-1.1
			c0-4.3-0.2-8.6,0.1-12.8c0.5-7.5-1.7-13.4-7.4-18.6c-8.6-7.9-16.5-16.4-24.6-24.7c-12.5-12.9-24.9-25.9-37.6-38.6
			c-2.4-2.4-5.9-5.4-8.9-5.4c-6.4,0-12.8,1.8-21.7,3.3C631.9,1024.5,663.8,1056.5,695.8,1088.5z M227.5,952.1c1.2,3,1.6,5.3,2.9,7
			c30.8,42.3,61.7,84.6,92.5,126.8c1.8-13.5,2.2-25.6-6.7-37.1c-21.4-28-41.7-56.8-62-85.6C247.6,953.6,238.8,952.2,227.5,952.1z
			 M803.8,952.7c-10.3,0.6-19.3,2-25.9,11.6c-20.4,29.5-41.1,58.9-62.5,87.7c-7.8,10.4-7.4,21.1-6.5,33.2
			C718.8,1075.4,801.1,960.6,803.8,952.7z M653.1,839.1c3.5-9.5,3.4-9.9-2.2-15.2c-1.7-1.6-3.6-3-5-4.9c-6.4-8.5-7.3-17.7-2.5-27.2
			c5-9.9,14.8-15,25.6-13.5c10.4,1.4,16.4,8,19.6,17.6c3.5,10.6,0.9,19.9-7.3,27.2c-5.3,4.7-6.3,9.5-3.8,15.7
			c15.4-4,26.9-22.7,25-39.8c-2.2-19.5-16.7-33.1-35.8-33.6c-19.6-0.5-34.7,11.7-38.2,30.9C625,815.4,635,833.3,653.1,839.1z
			 M838.5,946.2c-12.1,0.8-12.5,1.2-12.5,10.6c0,7,0.1,14,0.1,21c0,41-0.1,82,0,122.9c0,3.6,0.4,7.2,0.7,10.6
			c11.5,1,12.8,0,12.8-9.9c0-49,0-98-0.1-146.9C839.4,951.9,838.9,949.4,838.5,946.2z M207.9,1112.3c0.2-4,0.5-7.2,0.5-10.5
			c0-25.6,0-51.3,0-76.9c0-22.6-0.1-45.3-0.3-67.9c-0.1-10-1.6-11-13.1-9.7c-0.3,3.3-0.8,6.9-0.8,10.4c-0.1,47.3-0.2,94.6-0.2,141.9
			C194,1110.8,194.5,1111.2,207.9,1112.3z M258.2,119.9c-39.7,36.8-69.6,78.2-94.5,123.8c5.6,4.8,9.9,9.3,16,10.3
			c6.6-15.8,12.5-31.3,19.4-46.2c6.9-14.9,17.3-27.5,29-39.1c11.9-11.7,26.4-19.7,42.3-27.3C266.2,133.9,262.7,127.7,258.2,119.9z
			 M258.3,741.1c-10.7-1.7-20.1-2.2-28.8-4.7c-9.2-2.7-18.4-6.3-26.5-11.2c-7.8-4.8-14.9-11.3-21-18.1c-6.3-7.1-11-15.6-16.5-23.5
			c-1.1,0.4-2.1,0.4-2.9,1c-2.1,1.7-4.1,3.4-6,5.3c-6.9,6.9-7.1,8.3-1,15.9c22.6,28,52.4,44.7,86.5,54.3c6.7,1.9,8.1,0.9,10.8-5.3
			C254.6,750.8,256,746.7,258.3,741.1z M597.2,1048.6c-3.5,9.8-3.3,108.7-0.1,117.4c14.7-0.2,16.6-1.7,16.6-15.3
			c0.1-24.9-0.8-49.9,0.2-74.8C614.5,1062.2,605.6,1056.3,597.2,1048.6z M596.4,237.4c13.8-3.9,15.3-6,12.7-17.6
			c-1.6-7.1-3.1-14.3-5.2-21.3c-10.2-34.4-24.3-66.9-48.3-94.3c-2.3-2.7-4.9-5.1-8.6-8.8c-3.7,8.3-6.7,15.1-10,22.4
			C580.1,146.4,595.1,188.2,596.4,237.4z M119.4,556.5c-2.2-0.6-3.1-1.1-4-1c-1.6,0.1-3.3,0.5-4.9,0.8c-11.9,2.8-12.8,4.2-10.8,16.5
			c0.3,2,0.6,4,0.9,5.9c6.3,35.3,16.3,69.3,35.5,100.1c2.2,3.5,5,6.5,8.2,10.5c5.6-5.1,10.2-9.2,15.5-14
			C124.5,642.5,111.4,603.2,119.4,556.5z M485.2,1177.6c0.3-3.9,0.8-7.2,0.8-10.4c0.1-52.2,0.1-104.4,0-156.6c0-2.3,0.4-5-0.6-6.8
			c-1.1-1.9-3.6-3.8-5.7-4.2c-1.2-0.2-3.9,2.6-4.1,4.4c-0.8,4.9-0.9,9.9-0.9,14.9c0,49.2,0,98.4,0.1,147.6c0,1.3-0.1,2.7,0,4
			C475.3,1176.5,476,1177,485.2,1177.6z M548.2,1178.3c10-2.4,10.3-2.4,10.3-11.7c0-51.9,0-103.8-0.2-155.7c0-3.6-0.7-7.1-1-10.5
			c-9.3-0.9-10.2-0.2-10.2,8.9c-0.2,52.9-0.2,105.8-0.2,158.7C546.9,1171.2,547.7,1174.3,548.2,1178.3z M389.1,713.2
			c-4.1,3.3-7.4,6.1-10.8,8.6c-26.6,19.6-55.8,29.3-89.1,23.2c-4.6-0.8-9-2.5-13.5-3.8c-3.2-0.9-6.2-0.8-7.7,2.7
			c-2.6,6-6.4,11.6-5.6,18.5c1.3,0.7,2.1,1.4,3,1.5c3,0.3,6,0.6,9,0.6c38.2,0.3,73.6-10.3,107.2-27.9
			C392.4,730.9,393.7,727.7,389.1,713.2z M194.8,665.7c2,2.8,3.2,5.1,5,6.8c6.6,6.1,13,12.4,20.1,17.9c12,9.3,25.9,15,40.4,18.9
			c7,1.9,9.3,0.4,9.9-5.5c1.4-13.2-8.2-31.6-20.2-37.7c-15.2-7.8-31.2-8.8-47.5-4.2C200.1,662.6,197.9,664.1,194.8,665.7z
			 M117.2,544.7c-18-46.9-14.4-91.4,6.8-134.6c-6.5-4.4-12.1-6.4-18.5-4.1c-10.5,34.7-16,123.6-6.8,143.8
			C104.2,548.3,109.7,546.8,117.2,544.7z M128.9,397.8c0-14.7-1.2-27.1,0.2-39.2c3.7-32.4,17.9-60.4,39.5-84.7
			c2.3-2.6,4.4-5.5,7.4-9.1c-5.9-3.9-10.8-7.1-16.5-10.9c-2.6,4.2-4.9,7.3-6.7,10.8c-19.3,37.9-33.5,77.6-43.5,118.9
			c-0.7,3.1-0.7,6.3-1.1,10.4C115.3,395.3,121.3,396.4,128.9,397.8z M796.6,1118.3c17,0.7,19-1.1,19-15.1c0-30.9-0.1-61.8-0.2-92.7
			c0-1.5-0.4-3-0.9-6.5c-4.9,6.7-8.4,11.8-12.2,16.7c-4.3,5.5-5.9,11.4-5.8,18.5c0.3,22.6,0.1,45.2,0.1,67.8
			C796.6,1110.5,796.6,1114.1,796.6,1118.3z M236.7,1118.9c0.4-3.3,1-6.2,1-9c0-22.9-0.7-45.9,0-68.8c0.5-15.4-9.3-24.5-18.4-37.1
			c-0.5,4.8-1,7.3-1,9.8c0,29.9-0.1,59.8,0,89.7c0,12.8,0.9,13.7,13.8,15.6C233,1119.2,234,1119,236.7,1118.9z M437.3,1167
			c0-40.3,0-79.3,0-120c-10,8.7-18.6,15.5-17.9,29.4c0.9,17.6,0,35.3,0,52.9c0,9,0.4,18,0.4,26.9c0,5.1,2.2,8.2,7.3,9.1
			C430.1,1165.8,433.3,1166.3,437.3,1167z M183.8,1106.2c0.2-3.6,0.5-6.5,0.5-9.5c0-39,0-78-0.1-116.9c0-10,0-20-0.5-30
			c-0.3-7.3-1.6-8.1-11.2-7.5c-0.2,3.1-0.5,6.4-0.5,9.6c-0.1,7.7,0.1,15.3,0,23c0,40.3-0.1,80.6-0.1,120.9
			C172,1106.2,172.5,1106.5,183.8,1106.2z M850.9,1106.6c10.3-1.1,10.3-1.1,10.6-9.1c0.1-2,0.1-4,0.1-6c0-46.2-0.1-92.4-0.1-138.6
			c0-2,0-4-0.1-6c-0.2-2.9-1-5.5-4.5-5.3c-3.2,0.1-5.9,1.3-6.3,5c-0.2,2-0.3,4-0.3,6c0,48.5,0.1,97.1,0.1,145.6
			C850.4,1100.7,850.7,1103.3,850.9,1106.6z M286.3,143.6c0.7,0.6,1.3,1.2,2,1.8c2.5-1.9,5.1-3.7,7.6-5.6
			c23.5-18.4,48.8-33.5,77.6-42c7.3-2.2,14.9-3.3,22.3-5.4c2.1-0.6,3.8-2.9,5.6-4.4c-1.8-1.6-3.4-4.3-5.4-4.6
			c-7.2-0.9-14.7-2-21.8-1.2c-38.4,4.3-67,23.9-86.6,56.9C286.8,140.4,286.7,142.1,286.3,143.6z M401.2,724.8
			c54.9-32.2,93.5-76.9,127.8-127.6c-4.2-3.5-7.7-6.3-12-9.9c-2.4,5.4-4.3,9.6-6.1,13.8c-18.4,42.6-47.4,75.2-90.3,94.4
			c-4.6,2-9.3,3.6-13.7,6c-2.4,1.3-5.5,3.6-5.9,5.8C400.2,712.3,401,717.5,401.2,724.8z M276.2,153.8c-0.1-0.7-0.3-1.3-0.4-2
			c-3,0.7-6.3,0.9-9.1,2.1c-4.3,1.8-8.5,3.9-12.3,6.5c-33.9,23.1-53.6,55.6-63.1,94.9c-0.5,1.9,0.1,4.2,0.4,8.7
			c14.1-20.9,25.9-40.3,39.7-58.2C245.3,187.6,261.2,171,276.2,153.8z M519.7,125.3c0.9-0.6,1.7-1.2,2.6-1.8
			c-1.1-3.2-1.8-6.7-3.5-9.5c-18.5-30.9-63.3-46.9-97.2-34.9c-3.6,1.3-8.5,2.1-7.3,7.6c1.1,5.2,5.9,3.4,9.2,3.3
			c33.4-0.5,62.6,10.9,89,30.6C514.7,122.4,517.3,123.8,519.7,125.3z M133.7,553.8c-0.9,0-1.8-0.1-2.7-0.1c-1.1,4-2.6,8-3.1,12.1
			c-3,24.5,2,47.6,12.6,69.7c5.4,11.2,13.5,20.5,22.5,29c2.1,2,4.5,3,7.1,0.8c2.4-2.1,4.2-4.4,2.7-7.8c-0.5-1.2-1.2-2.4-1.9-3.5
			c-18-28.6-28.6-59.9-34.9-92.9C135.5,558.6,134.5,556.2,133.7,553.8z M611.7,244.5c-13.6,3.5-14.6,5.8-10.5,18.3
			c3.1,9.4,6,19.1,7.5,28.9c6.2,38.7,1.6,76.1-13.8,112.2c-1.3,2.9-2.1,6-3.5,9.8c5,0.9,8.8,1.6,12.3,2.3
			C617.3,387.3,624,272.2,611.7,244.5z M298.9,690.8c12.7-7.9,25.6-14.9,40-18.1c6.1-1.4,9.8-4.6,13.1-9.6
			c13.8-21.4,30.6-40.2,50.9-55.8c1.6-1.2,3-2.8,4.5-4.2C363.1,622.6,327.3,652.3,298.9,690.8z M601.5,426.8c-0.5-0.4-0.9-1-1.5-1.3
			c-0.6-0.3-1.2-0.6-1.8-0.7c-8-2.1-9.3-1-9.7,7.2c-0.2,5-0.1,10-0.9,14.9c-7,47.4-26.7,88.8-58.4,124.7c-1.9,2.2-3.6,4.5-5.9,7.4
			c4.2,3.2,7.7,5.9,11.2,8.6C560.7,554.2,601.5,453.7,601.5,426.8z M265.3,722c-3.8-1.3-7.1-2.7-10.5-3.6
			c-24.9-6.5-45.2-20.6-63-38.7c-1.9-1.9-3.6-3.9-5.4-5.8c-2.3-2.4-5-3.2-8-1.2c-3.1,2-3.5,5-2,7.9c2.9,5.6,5.9,11.2,9.5,16.3
			c16.6,23.5,40.6,32.2,68.2,33.2C258.7,730.1,263.7,729.9,265.3,722z M186.2,273.3c-28.3,10-59.8,96.5-44.1,124.5
			c1.3-4,2.4-6.9,3.3-10c3.4-11.8,6.4-23.8,10.1-35.6c7.6-24.6,17.8-48.1,29.5-71C186.2,278.9,188.9,276.4,186.2,273.3z M917,646
			c0.9,0.2,1.7,0.4,2.6,0.7c2.8-6.2,5.3-12.5,8.4-18.5c3.3-6.3,2.4-11.8-1-17.8c-12.8-22.7-30.7-40.7-50.9-56.6
			c-1.2-1-2.7-1.7-4.4-2.7c-2.3,5.8-0.9,9.8,2.8,13.9c19.6,21.9,33.5,46.8,40.5,75.5C915.4,642.4,916.3,644.2,917,646z M138.1,412.6
			c-6,5.1-6.7,5.7-10.1,13.8c-11.6,27-15,55-10.2,83.9c1.4,8.1,4.4,16,7,23.8c0.7,2,2.9,3.5,4.5,5.3c1.5-1.5,2.3-2,2.3-2.5
			c-1.5-40.9-0.1-81.6,7.8-122C139.4,414.6,138.7,413.9,138.1,412.6z M570.7,248.3c0.8-22.4-26-82.7-41.4-94.2
			c-0.2,1-0.7,1.9-0.7,2.8c1.6,22.3,6.1,44.1,15.8,64.3C549.8,232.7,556.9,243.1,570.7,248.3z M583.6,245.2
			c10.4-30.7-14.9-104.1-50.4-115.3c-5.7,5.3-0.7,9,2.2,12.5c22.4,27.7,36.8,59.2,45.2,93.6C581.2,238.8,582.3,241.4,583.6,245.2z
			 M408,1159.7c2.9-9.5,2.7-74.2-0.6-83.5c-3.2,2.9-5.9,5.6-8.8,8c-6.6,5.4-9.4,12.1-9,20.9c0.6,12.6,0,25.2,0,37.8
			c0,13.8,1.1,15,14.8,17.1C405.3,1160.1,406.3,1159.8,408,1159.7z M902.5,709c6.7,2.2,9.4,0.5,9-5c-0.9-11.9-2-23.8-2.9-35.8
			c-0.5-6.9-4.3-11.5-9.3-15.7c-15.9-13.4-34.5-20.9-54.2-26.6c-4.8-1.4-7.4,0.4-8.8,5.3C874.8,643.5,900.9,666,902.5,709z
			 M624.5,1159.5c3.6-0.3,5.2-0.3,6.8-0.5c12.6-2.1,13.1-2.6,12.9-15.2c-0.1-12.6-1.3-25.4-0.1-37.9c1.4-15.3-9.4-20.9-19.1-28.2
			C624,1104.8,623.2,1131.5,624.5,1159.5z M293.4,711.2c18.1,5.3,75.3-10.9,86.1-24.3C358.8,672.2,312.3,686.6,293.4,711.2z
			 M872.3,1015c18.9-17.7,32.9-62.8,28.7-79.4c-8.2,6.1-16.6,12.1-24.6,18.5c-1.9,1.5-3.9,4.2-3.9,6.4
			C872.2,978.6,872.3,996.8,872.3,1015z M387.2,699.9c-1.3-0.5-2.1-1.1-2.5-1c-2.5,0.9-4.9,1.9-7.3,3.1
			c-28.5,14-58.2,22.5-90.3,21.1c-1.3-0.1-2.9-0.4-3.9,0.1c-2.2,1.1-4,2.7-6,4.2c1.4,1.7,2.4,4.3,4.1,4.9c5.6,1.8,11.5,3.7,17.3,4.2
			c32.4,2.5,59.8-9.4,83.7-30.4C384.2,704.3,385.5,702,387.2,699.9z M581.4,406.5c9.2-16.8,14.3-34.6,17.6-53
			c5.1-28.5,1.9-56.3-5.8-83.9c-0.9-3.1-1-7.3-7-8.6C591.5,310.3,591.1,358.6,581.4,406.5z M249.2,1045.4c-0.9,0.3-1.8,0.6-2.7,0.9
			c0,8.9,0,17.8,0,26.7c0.1,13.6,0.2,27.2,0.3,40.8c0,3.7,0.1,7.7,4.4,9.2c4.2,1.4,8.6,2.1,14,3.4c0.4-5.2,0.8-8.7,0.8-12.3
			c0.1-10.6-0.9-21.3,0.3-31.8C268.2,1065.9,257.4,1056.5,249.2,1045.4z M401.4,691.3c35.2-2.6,101.3-70,102.6-105
			c-5.3,7.3-9.8,13.8-14.6,20.1c-5.1,6.6-10.2,13.1-15.7,19.4c-5.2,6-10.8,11.8-16.4,17.5c-5.9,5.9-11.9,11.7-18.1,17.2
			c-6,5.2-12.7,9.7-18.7,15C414.4,680.6,406.3,683.6,401.4,691.3z M522.4,185.9c-0.6,0.2-1.3,0.3-1.9,0.5
			c-0.5,47.8,7.3,94.1,26.3,138.3c0.7-1.4,0.9-2.7,0.7-3.9c-5.1-26.2-8.6-52.6-7.1-79.4c0.2-4-1.8-8.3-3.3-12.2
			c-3.4-9-7.4-17.8-10.6-26.9C524.6,196.9,523.7,191.3,522.4,185.9z M334.8,1047.3c0.8,0.3,1.5,0.6,2.3,0.9
			c4.8-4.9,9.9-9.6,14.4-14.9c1.6-1.8,2.5-4.8,2.5-7.3c0.2-14.9,0-29.8,0-44.8c0-6.8-2.8-8.4-13.6-9.3c-5.1-0.4-5.9,1-6,8.9
			c-0.2,18.9-0.2,37.8-0.3,56.7C334.2,1040.9,334.6,1044.1,334.8,1047.3z M429.6,603.5c-22.5,7.7-63.7,48.9-66.9,66.3
			c8.4,2.2,16.8,4.3,26.7,6.9C394.5,646.9,409.4,623.8,429.6,603.5z M768.8,1125.5c17.5-1.8,17.5-1.8,17.5-17.4
			c0-18.3,0-36.5-0.1-54.8c0-2.4-0.6-4.7-1.3-9.1c-6,8.2-10.9,14.4-15.1,21.1c-1.7,2.6-2.6,6.2-2.6,9.3c-0.2,13.9,0,27.9,0.2,41.8
			C767.5,1119.4,768.3,1122.2,768.8,1125.5z M938.7,837.8c13-2.9,20.4-10.9,20.9-23.3c0.6-15.6,0.2-31.3,0.2-46.9
			c0-1.3,0-3.3-0.7-3.7c-1.4-0.8-4.1-1.4-4.8-0.7c-1.4,1.6-2,4.1-2.9,6.2c-2.4,6.2-3.7,13.2-7.4,18.4c-6.8,9.7-8.2,20-7.3,31.2
			c0.3,4,0,8,0.3,12C937.1,833,938,835.1,938.7,837.8z M848.8,616.5c21.2,4.8,38.7,13.7,54.9,25.8c-6.4-24.4-15.9-46.7-34.2-66.6
			c-2.7,7.7-4.8,13.5-6.9,19.2c6.4,6.7,16.2,9.1,19.3,19c-10.3,2.5-16.5-6.8-25.5-8.1C854.3,609,852.2,611.9,848.8,616.5z
			 M698.1,973c-3.4,0-5.1-0.2-6.7,0c-11,1.4-12.1,2.4-12.3,13.8c-0.2,10.6,0.6,21.3-0.1,31.8c-1,13.9,8.6,20.2,18.6,29.2
			C698.8,1021.9,698.1,997.9,698.1,973z M808.6,624.7c5.9,3.2,11,1.7,16-1.4c15.1-9.4,24-23.6,30.3-39.7c4.1-10.4,5.7-21.1,4.7-32.2
			c-0.7-7.9-4.9-13-11.9-16.1c-0.8,11.8-0.9,23-2.4,34.1c-1.5,11.4-6.6,21.8-13.6,30.7C824.9,608.7,816.6,616.3,808.6,624.7z
			 M708.8,1042.4c19.4-24.2,19.4-24.2,19.1-51.5c-0.1-5.3,0-10.7-0.2-16c-0.1-2.2-0.7-4.5-1.2-7.8c-4.3,0.5-8.1,0.8-11.9,1.4
			c-3.9,0.6-5.7,3.2-5.7,7C708.8,997.2,708.8,1018.7,708.8,1042.4z M918.9,915.2c-6,3.8-7,8.3-6.7,13.5c1.6,26.4-6.2,50.5-17.6,73.8
			c-0.9,1.8-1.2,3.8-2.5,8.1c7-4.9,11.7-8.5,16.7-11.7c6.6-4.2,10.1-10.2,12.1-17.5c4.6-16.7,4-33.6,1.7-50.5
			C921.8,925.8,920.2,920.9,918.9,915.2z M321.3,1040.6c0.9-0.3,1.9-0.7,2.8-1c0-21.6,0.2-43.1-0.1-64.7c-0.1-5.3-5.1-7.9-11.8-7.6
			c-5.7,0.2-6.1,4.3-6.2,8.4c-0.2,12.6-0.3,25.3-0.2,38c0,2.2,0.4,4.8,1.6,6.7C311.8,1027.1,316.6,1033.8,321.3,1040.6z
			 M520.7,563.7c34-39.1,55.7-83.3,56.5-136.1C565.2,475.8,545,520.6,520.7,563.7z M509.4,556.7c-21.4,15.5-41.2,29.9-61,44.1
			c-14.6,10.5-25.6,24-34.3,39.6c-1.1,2-1.9,4.3-3.4,8c8.8-9.3,15.9-17.6,23.9-25c15.9-14.6,32.3-28.7,51.1-39.6
			C495.8,577.8,503.2,569,509.4,556.7z M933.9,970.6c7-6.1,13.8-12.4,14-22.5c0.3-17.1-4.8-32.7-14.6-46.6c-1.4-2-3.5-3.5-5.2-5.1
			c-4,2.6-3.2,5.4-2.1,8.3C933.9,925.8,936.1,947.7,933.9,970.6z M412.1,667.7c25.9-18.5,49.1-39.7,66.6-66.7
			C452.9,619.6,427.1,638.2,412.1,667.7z M935.4,874.5c-4.5,6.7-2.7,10.5,0.8,14.3c8.6,9.5,13.8,21,17.9,33.1
			c1.4,4.2,2.1,8.5,3.3,13.8c9.2-13.5,9.9-25.6,0.7-37.8c-3.4-4.5-6.3-9.5-10.1-13.6C944.4,880.7,939.9,878,935.4,874.5z
			 M379.6,1106.4c-17.4,11.1-19.6,15.1-19,32.4c0,1,0.1,2,0.1,3c-0.3,5.6,2.6,8.7,7.8,9.9c3.4,0.8,6.9,1.2,11.1,1.9
			C379.6,1137.6,379.6,1122.8,379.6,1106.4z M756.7,1085.1c-17.3,15.6-21.9,28.8-17,47.8c2.8-0.4,5.7-0.6,8.5-1.3
			c8.5-2,9-2.6,9.1-11.3c0.1-7.6,0-15.2-0.1-22.8C757.3,1093.7,757,1089.9,756.7,1085.1z M550.4,249.8c-0.3,25.8,3,49.2,8.9,72.3
			c0.2-21.1,3.5-41.5,10.9-61.2C563.6,257.1,557.9,253.9,550.4,249.8z M653.1,1154.1c6-1.6,10.7-2.6,15.3-4.1c1.4-0.4,2.7-2,3.3-3.4
			c6.4-13.9-1.1-30.9-17.5-37.7C654.1,1123.8,652.1,1138,653.1,1154.1z M293.9,1133.5c5.4-18.7-1.8-37.7-17.8-46.9
			c0,10.4,0,20.3,0,30.3c-0.1,12.8,0.6,13.7,13.3,16.3C290.7,1133.4,292,1133.3,293.9,1133.5z M574.3,369.3
			c5.8-29.8,6.6-59.7,2-89.7C566.8,309.4,571.9,339.4,574.3,369.3z M922.1,730.4c0,0.1,0,0.2,0,0.4c8.9,0,17.9,0,26.8,0
			c3.5,0,6-1.2,5.9-5c-0.1-3.8-2.7-4.8-6.1-4.8c-17.2,0.2-34.5,0.3-51.7,0.6c-3.2,0-6.2,1.2-5.8,5.1c0.3,3.4,3.3,3.7,6,3.7
			C905.6,730.4,913.9,730.4,922.1,730.4z M922.9,741.2c0,0,0,0.1,0,0.1c-8.3,0-16.7-0.1-25,0c-2.9,0-6.8-0.6-6.9,3.7
			c-0.1,4.5,3.9,4.6,7.2,4.8c2,0.1,4,0.1,6,0.1c11,0,22,0,33,0c3.7,0,7.4,0.4,10.9-0.3c2.1-0.5,4.9-2.7,5.2-4.6
			c0.7-3.7-2.8-3.8-5.5-3.8C939.6,741.1,931.3,741.2,922.9,741.2z M669.6,1018.3c0-12,0-22.6,0-33.1c0-3.7-0.1-7.9-5.6-7.2
			c-8.9,1.2-11.1,2-11.8,7.7C650.5,999.8,655.9,1010,669.6,1018.3z M366.4,977.5c-3.3,9.5-3.1,33.5,0.2,40.8
			c4-4.2,8.1-8.1,11.6-12.4c5.3-6.5,4.1-14.3,3.1-21.9c-0.2-1.5-2.3-3.4-3.9-4C373.8,978.8,370,978.3,366.4,977.5z M279.2,961.7
			c-4.1,12.9,4.4,32.5,16.5,38c0-8.5,0.2-16.7,0-24.9c-0.3-10.6-1.1-11.4-11.9-13C282.5,961.6,281.1,961.7,279.2,961.7z
			 M936.4,635.3c-5.6,7.4-6.9,13.3-4.1,20.3c4.4,10.9,6.2,22.4,6.1,34.2c0,5.3,0,10.7,0.4,16c0.1,1.2,2.1,2.3,5.1,5.3
			C945,684.4,945,660.5,936.4,635.3z M738,997.6c1.1,0.4,2.1,0.7,3.2,1.1c5-7.7,10.4-15.2,14.9-23.2c1.5-2.6,1-6.4,1.1-9.7
			c0-1.1-1.1-3.3-1.8-3.3c-4.2,0-8.4,0.2-12.6,0.8c-3.5,0.5-4.8,3.2-4.8,6.5C738,979.1,738,988.3,738,997.6z M953.3,873.8
			c6,8.9,11.5,17,17.8,26.3c3.1-13.4,7.3-25.4,6.7-39.2C969,865.5,961.5,869.4,953.3,873.8z M658.6,815.2c0.5-4.6,0.3-8.1,1.5-11
			c0.8-2,3.4-4.2,5.5-4.6c1.5-0.3,4.3,1.8,5.3,3.5c1.5,2.7,1.9,6,2.9,9.4c6.8-7.1,6.7-14.2,0.4-20.1c-5.5-5.1-13.7-4.9-18.8,0.4
			C649.1,799.3,649.9,807.5,658.6,815.2z M922.6,659.1c-0.7,0.2-1.4,0.3-2.1,0.5c0.6,15.5,1.2,31,1.8,46.5c0,0.3,0,0.7,0.2,1
			c0.8,0.9,1.8,2.6,2.5,2.6c1.4-0.2,3.2-1.1,3.9-2.3c0.7-1.3,0.6-3.2,0.5-4.9c-0.7-9.9-1.2-19.9-2.5-29.8
			C926.4,668,924.1,663.6,922.6,659.1z M339.6,1144.5c5,0.4,8.6,1.8,10,0.6c3.5-3,2.9-7.3,0.4-12.5
			C346.5,1136.5,343.9,1139.5,339.6,1144.5z M716.8,810c0.9,0.1,1.7,0.2,2.6,0.3c1.2-1.8,3.6-3.8,3.4-5.5c-0.2-1.9-2.7-3.6-4.2-5.4
			c-1.4,1.5-3.7,2.8-3.9,4.4C714.5,805.8,716,807.9,716.8,810z M316,1138c-3.8-5.5-6.3-9.2-9.5-13.9
			C303.7,1135.3,304.2,1136,316,1138z M692.6,1144.1c-2.5-4.8-4.5-8.2-10.2-9c0.2,3.9,0.4,7,0.7,11.3
			C686.7,1145.5,689.3,1144.9,692.6,1144.1z M726.1,1125.8c-2.5,3.7-5.1,7.3-8.4,12.1C728.8,1136.2,728.8,1136.2,726.1,1125.8z
			 M642.6,992.4c0-9.8,0-9.8-7-6.2C637.6,988,639.2,989.4,642.6,992.4z M391.5,991.4c2.4-3.2,3.7-5,5.9-7.9
			C390.7,983.3,390.3,985.7,391.5,991.4z M268.5,961c-1.5-1.2-2.3-2-3.3-2.6c-0.2-0.1-1.5,1.2-1.4,1.7c0.2,0.8,0.9,1.7,1.7,2.1
			C266,962.4,266.9,961.6,268.5,961z M873,939.7c0.4,0.7,0.8,1.4,1.2,2.1c1.6-1,3.1-2,4.7-3c-0.2-0.4-0.5-0.9-0.7-1.3
			C876.4,938.2,874.7,939,873,939.7z"/>
		<path d="M462.1,867.9c17.1,9,88.5,9.3,109.2,0.8c-15.1-5.2-29.8-6.2-44.1-6.1c-1.1,0.7-2,0.9-2.2,1.4c-1.8,4.8-4.4,8.5-10.3,7
			c-5.7-1.5-4.5-6.7-4.8-10.8c-0.2-2.6-0.3-5.5,0.4-7.9c0.7-2.3,2.3-5.5,4-5.9c2.4-0.5,6.6,0.5,7.7,2.3c2.4,4,5.7,3.9,9.3,4.3
			c14.9,1.7,29.8,3.2,44.5,5.6c4.7,0.7,9.4,3.4,13.5,6.1c4,2.7,4,6.2-0.1,8.9c-3.8,2.5-8.2,4.9-12.6,5.7
			c-12.8,2.2-25.6,4.5-38.5,5.1c-24.6,1.1-49.3,1.4-73.7-3.3c-5.8-1.1-11.8-2.5-17.1-5c-8-3.8-8.1-10.3,0-13.6
			c8.5-3.4,17.7-5.7,26.8-7.2c9.2-1.5,18.6-1.5,27.9-1.9c2.6-0.1,6.2,0.2,5.5,3.9c-0.4,1.9-3.3,4.3-5.3,4.6
			c-9.5,1.5-19.2,2.2-28.7,3.5C470.1,865.7,466.7,866.8,462.1,867.9z"/>
	</g>
</g>
</svg>
